<?xml version="1.0" encoding="utf-8"?>
<!-- Generator: Adobe Illustrator 21.0.0, SVG Export Plug-In . SVG Version: 6.00 Build 0)  -->
<svg version="1.1" id="Layer_1" xmlns="http://www.w3.org/2000/svg" xmlns:xlink="http://www.w3.org/1999/xlink" x="0px" y="0px"
	 viewBox="0 0 1000 1000" style="enable-background:new 0 0 1000 1000;" xml:space="preserve">
<style type="text/css">
	.st0{fill:none;}
	.st1{fill:#E6E6E6;}
	.st2{fill:none;stroke:url(#SVGID_1_);stroke-width:14;stroke-miterlimit:10;}
	.st3{fill:none;stroke:url(#SVGID_2_);stroke-width:14;stroke-miterlimit:10;}
	.st4{fill:none;stroke:url(#SVGID_3_);stroke-width:14;stroke-miterlimit:10;}
	.st5{fill:none;stroke:url(#SVGID_4_);stroke-width:14;stroke-miterlimit:10;}
	.st6{fill:none;stroke:url(#SVGID_5_);stroke-width:14;stroke-miterlimit:10;}
	.st7{opacity:0.5;fill:none;stroke:#808080;stroke-width:5;stroke-miterlimit:10;enable-background:new    ;}
	.st8{fill:none;stroke:#808080;stroke-width:10;stroke-miterlimit:10;}
	.st9{font-family:'MyriadPro-Regular';}
	.st10{font-size:18.4825px;}
	.st11{font-size:34.0443px;}
	.st12{font-size:34.0455px;}
	.st13{font-size:15.7461px;}
	.st14{fill:none;stroke:#000000;stroke-miterlimit:10;}
</style>
<g>
	<g>
		<g>
			<polygon class="st0" points="153.8,352.6 153.8,577.6 286.1,759.6 500,829.1 713.9,759.6 846.2,577.6 846.2,352.6 713.9,170.6 
				500,101.1 286.1,170.6 			"/>
		</g>
		<g>
			<polygon class="st0" points="223.1,375.1 223.1,555.1 328.9,700.7 500,756.3 671.1,700.7 776.9,555.1 776.9,375.1 671.1,229.6 
				500,174 328.9,229.6 			"/>
		</g>
		<g>
			<polygon class="st0" points="292.4,397.7 292.4,532.6 371.7,641.7 500,683.4 628.3,641.7 707.6,532.6 707.6,397.7 628.3,288.5 
				500,246.8 371.7,288.5 			"/>
		</g>
		<g>
			<polygon class="st0" points="361.6,420.1 361.6,510.1 414.4,582.9 500,610.7 585.6,582.9 638.4,510.1 638.4,420.1 585.6,347.3 
				500,319.5 414.4,347.3 			"/>
		</g>
		<g>
			<polygon class="st0" points="430.7,442.6 430.7,487.6 457.2,524 500,538 542.8,524 569.3,487.6 569.3,442.6 542.8,406.2 
				500,392.3 457.2,406.2 			"/>
		</g>
	</g>
	<g>
		<line class="st0" x1="500" y1="101.1" x2="500" y2="465.1"/>
		<line class="st0" x1="846.2" y1="352.6" x2="500" y2="465.1"/>
		<line class="st0" x1="713.9" y1="759.6" x2="500" y2="465.1"/>
		<line class="st0" x1="286.1" y1="759.6" x2="500" y2="465.1"/>
		<line class="st0" x1="153.8" y1="352.6" x2="500" y2="465.1"/>
	</g>
</g>
<polygon class="st1" points="500,101.1 846.2,352.6 713.9,759.6 286.1,759.6 153.8,352.6 "/>
<g>
	
		<linearGradient id="SVGID_1_" gradientUnits="userSpaceOnUse" x1="500" y1="534.9" x2="500" y2="898.9" gradientTransform="matrix(1 0 0 -1 0 1000)">
		<stop  offset="0" style="stop-color:#FFFFFF;stop-opacity:0"/>
		<stop  offset="5.128294e-02" style="stop-color:#FDE6DE;stop-opacity:5.128294e-02"/>
		<stop  offset="0.1289" style="stop-color:#FAC5B3;stop-opacity:0.1289"/>
		<stop  offset="0.2127" style="stop-color:#F8A88C;stop-opacity:0.2127"/>
		<stop  offset="0.3016" style="stop-color:#F6906C;stop-opacity:0.3016"/>
		<stop  offset="0.3969" style="stop-color:#F47C52;stop-opacity:0.3969"/>
		<stop  offset="0.5012" style="stop-color:#F36D3D;stop-opacity:0.5012"/>
		<stop  offset="0.6192" style="stop-color:#F2622F;stop-opacity:0.6192"/>
		<stop  offset="0.7622" style="stop-color:#F15C27;stop-opacity:0.7622"/>
		<stop  offset="1" style="stop-color:#F15A24"/>
	</linearGradient>
	<line class="st2" x1="500" y1="101.1" x2="500" y2="465.1"/>
	
		<linearGradient id="SVGID_2_" gradientUnits="userSpaceOnUse" x1="499.9979" y1="534.9057" x2="846.2021" y2="647.3943" gradientTransform="matrix(1 0 0 -1 0 1000)">
		<stop  offset="0" style="stop-color:#FFFFFF;stop-opacity:0"/>
		<stop  offset="5.548662e-02" style="stop-color:#FFFCDB;stop-opacity:5.548662e-02"/>
		<stop  offset="0.1328" style="stop-color:#FEF9B0;stop-opacity:0.1328"/>
		<stop  offset="0.2162" style="stop-color:#FDF689;stop-opacity:0.2162"/>
		<stop  offset="0.3046" style="stop-color:#FDF369;stop-opacity:0.3046"/>
		<stop  offset="0.3995" style="stop-color:#FDF14F;stop-opacity:0.3995"/>
		<stop  offset="0.5034" style="stop-color:#FCF03A;stop-opacity:0.5034"/>
		<stop  offset="0.6209" style="stop-color:#FCEF2C;stop-opacity:0.6209"/>
		<stop  offset="0.7633" style="stop-color:#FCEE24;stop-opacity:0.7633"/>
		<stop  offset="1" style="stop-color:#FCEE21"/>
	</linearGradient>
	<line class="st3" x1="846.2" y1="352.6" x2="500" y2="465.1"/>
	
		<linearGradient id="SVGID_3_" gradientUnits="userSpaceOnUse" x1="499.9776" y1="534.885" x2="713.9224" y2="240.415" gradientTransform="matrix(1 0 0 -1 0 1000)">
		<stop  offset="0" style="stop-color:#FFFFFF;stop-opacity:0"/>
		<stop  offset="2.389425e-02" style="stop-color:#EDF7F2;stop-opacity:2.389425e-02"/>
		<stop  offset="9.433836e-02" style="stop-color:#BBE2CE;stop-opacity:9.433836e-02"/>
		<stop  offset="0.1703" style="stop-color:#8FCFAD;stop-opacity:0.1703"/>
		<stop  offset="0.2502" style="stop-color:#68BF91;stop-opacity:0.2502"/>
		<stop  offset="0.3348" style="stop-color:#48B179;stop-opacity:0.3348"/>
		<stop  offset="0.4256" style="stop-color:#2EA566;stop-opacity:0.4256"/>
		<stop  offset="0.525" style="stop-color:#199D57;stop-opacity:0.525"/>
		<stop  offset="0.6374" style="stop-color:#0B974D;stop-opacity:0.6374"/>
		<stop  offset="0.7736" style="stop-color:#039347;stop-opacity:0.7736"/>
		<stop  offset="1" style="stop-color:#009245"/>
	</linearGradient>
	<line class="st4" x1="713.9" y1="759.6" x2="500" y2="465.1"/>
	
		<linearGradient id="SVGID_4_" gradientUnits="userSpaceOnUse" x1="500.0225" y1="534.8849" x2="286.0775" y2="240.4151" gradientTransform="matrix(1 0 0 -1 0 1000)">
		<stop  offset="0" style="stop-color:#FFFFFF;stop-opacity:0"/>
		<stop  offset="2.389425e-02" style="stop-color:#EDF5FA;stop-opacity:2.389425e-02"/>
		<stop  offset="9.433836e-02" style="stop-color:#BBD9ED;stop-opacity:9.433836e-02"/>
		<stop  offset="0.1703" style="stop-color:#8FC0E2;stop-opacity:0.1703"/>
		<stop  offset="0.2502" style="stop-color:#68ABD7;stop-opacity:0.2502"/>
		<stop  offset="0.3348" style="stop-color:#4899CF;stop-opacity:0.3348"/>
		<stop  offset="0.4256" style="stop-color:#2E8AC8;stop-opacity:0.4256"/>
		<stop  offset="0.525" style="stop-color:#197FC3;stop-opacity:0.525"/>
		<stop  offset="0.6374" style="stop-color:#0B77BF;stop-opacity:0.6374"/>
		<stop  offset="0.7736" style="stop-color:#0372BD;stop-opacity:0.7736"/>
		<stop  offset="1" style="stop-color:#0071BC"/>
	</linearGradient>
	<line class="st5" x1="286.1" y1="759.6" x2="500" y2="465.1"/>
	
		<linearGradient id="SVGID_5_" gradientUnits="userSpaceOnUse" x1="500.0021" y1="534.9057" x2="153.7979" y2="647.3943" gradientTransform="matrix(1 0 0 -1 0 1000)">
		<stop  offset="0" style="stop-color:#FFFFFF;stop-opacity:0"/>
		<stop  offset="2.389425e-02" style="stop-color:#FFEDED;stop-opacity:2.389425e-02"/>
		<stop  offset="9.433836e-02" style="stop-color:#FFBBBB;stop-opacity:9.433836e-02"/>
		<stop  offset="0.1703" style="stop-color:#FF8F8F;stop-opacity:0.1703"/>
		<stop  offset="0.2502" style="stop-color:#FF6868;stop-opacity:0.2502"/>
		<stop  offset="0.3348" style="stop-color:#FF4848;stop-opacity:0.3348"/>
		<stop  offset="0.4256" style="stop-color:#FF2E2E;stop-opacity:0.4256"/>
		<stop  offset="0.525" style="stop-color:#FF1919;stop-opacity:0.525"/>
		<stop  offset="0.6374" style="stop-color:#FF0B0B;stop-opacity:0.6374"/>
		<stop  offset="0.7736" style="stop-color:#FF0303;stop-opacity:0.7736"/>
		<stop  offset="1" style="stop-color:#FF0000"/>
	</linearGradient>
	<line class="st6" x1="153.8" y1="352.6" x2="500" y2="465.1"/>
</g>
<polygon class="st7" points="500,174 776.9,375.1 671.1,700.7 328.9,700.7 223.1,375.1 "/>
<polygon class="st7" points="500,246.8 707.6,397.7 628.3,641.7 371.7,641.7 292.4,397.7 "/>
<polygon class="st7" points="500,319.5 638.4,420.1 585.6,582.9 414.4,582.9 361.6,420.1 "/>
<polygon class="st7" points="500,392.3 569.3,442.6 542.8,524 457.2,524 430.7,442.6 "/>
<polygon class="st8" points="500,101.6 846.2,353.1 713.9,760 286.1,760 153.8,353.1 "/>
<text transform="matrix(1 0 0 1 517.9243 173.9717)" class="st9 st10">I require much support with this</text>
<text transform="matrix(1 0 0 1 517.9243 246.8115)" class="st9 st10">I require little supportwith this</text>
<text transform="matrix(1 0 0 1 517.9238 319.5444)" class="st9 st10">I do not need support with this</text>
<text transform="matrix(1 0 0 1 517.9243 392.2773)" class="st9 st10">I can handle this very well</text>
<rect class="st0" width="1000" height="1000"/>
<g>
	
		<rect x="229.7" y="741.5" transform="matrix(0.5878 -0.809 0.809 0.5878 -548.6705 536.2975)" class="st0" width="44.5" height="130.1"/>
	<text transform="matrix(0.809 0.5878 -0.5878 0.809 199.1024 783.9342)" class="st9 st11">Sensory</text>
</g>
<g>
	
		<rect x="45.6" y="316.3" transform="matrix(0.309 -0.9511 0.9511 0.309 -245.5813 339.1557)" class="st0" width="130.1" height="44.5"/>
	<text transform="matrix(0.309 -0.9511 0.9511 0.309 100.8416 409.8956)" class="st9 st12">Language</text>
</g>
<g>
	<rect x="435" y="30.8" class="st0" width="130.1" height="44.5"/>
	<text transform="matrix(1 0 0 1 419.3339 65.8064)" class="st9 st11">Motor skills</text>
</g>
<g>
	
		<rect x="875.2" y="271" transform="matrix(0.9511 -0.309 0.309 0.9511 -59.913 293.7417)" class="st0" width="44.5" height="130.1"/>
	<text transform="matrix(0.309 0.9511 -0.9511 0.309 861.4312 266.3006)" class="st9 st12">Perception</text>
</g>
<g>
	
		<rect x="675.6" y="774" transform="matrix(0.809 -0.5878 0.5878 0.809 -326.5727 587.4064)" class="st0" width="130.1" height="44.5"/>
	<text transform="matrix(0.809 -0.5878 0.5878 0.809 641.6625 883.9249)" class="st9 st11">Executive function</text>
</g>
<text transform="matrix(1 0 0 1 21.3 961.0038)" class="st9 st13">This is an autism spectrum radar chart made by “An Autistic, Lesbian, Rational, Feminist Gamer (ALRFgamer)”</text>
<text transform="matrix(1 0 0 1 21.3 979.9037)" class="st9 st13">This work is licensed under a Creative Commons Attribution-NonCommercial 4.0 International License.</text>
<g>
	<g>
		<path class="st14" d="M500,53.1"/>
		<path class="st14" d="M889.4,336"/>
		<path class="st14" d="M740.6,793.7"/>
		<path class="st14" d="M259.4,793.7"/>
		<path class="st14" d="M110.6,336"/>
	</g>
</g>
</svg>
