<?xml version="1.0" encoding="utf-8"?>
<!-- Generator: Adobe Illustrator 21.0.0, SVG Export Plug-In . SVG Version: 6.00 Build 0)  -->
<svg version="1.1" id="Layer_1" xmlns="http://www.w3.org/2000/svg" xmlns:xlink="http://www.w3.org/1999/xlink" x="0px" y="0px"
	 viewBox="0 0 1000 1000" style="enable-background:new 0 0 1000 1000;" xml:space="preserve">
<style type="text/css">
	.st0{fill:none;stroke:#E20613;stroke-width:23;stroke-miterlimit:10;}
	.st1{fill:none;stroke:#E20613;stroke-width:10;stroke-miterlimit:10;}
	.st2{fill:#7CDBEF;}
	.st3{opacity:0.5;}
	.st4{fill:#FFFFFF;}
	.st5{fill:#8CC63F;}
	.st6{enable-background:new    ;}
	.st7{clip-path:url(#XMLID_246_);enable-background:new    ;}
	.st8{fill:#066F80;}
	.st9{clip-path:url(#XMLID_247_);}
	.st10{clip-path:url(#XMLID_248_);enable-background:new    ;}
	.st11{clip-path:url(#XMLID_249_);}
	.st12{opacity:0.9;fill:#E20613;enable-background:new    ;}
	.st13{fill:#333333;}
	.st14{fill:#D9AA52;}
	.st15{fill:#FCD388;}
	.st16{font-family:'BrushScriptStd';}
	.st17{font-size:90.2372px;}
	.st18{opacity:0.9;enable-background:new    ;}
	.st19{fill-rule:evenodd;clip-rule:evenodd;fill:#E11F26;}
	.st20{fill:#E11F26;}
	.st21{fill:#E8A96C;}
	.st22{fill:#E88A2E;}
	.st23{fill:#010101;}
</style>
<g id="XMLID_34_">
	<path id="XMLID_35_" class="st0" d="M369.3,608.7"/>
</g>
<g id="XMLID_32_">
	<path id="XMLID_33_" class="st1" d="M369.1,533.7"/>
</g>
<rect id="XMLID_1292_" class="st2" width="1000" height="1000"/>
<g id="XMLID_1288_" class="st3">
	<path id="XMLID_1291_" class="st4" d="M261.6,371.5h159.9c15.1,0,27.3-12.2,27.3-27.3V332c0-15.1-12.2-27.3-27.3-27.3H261.6
		c-15.1,0-27.3,12.2-27.3,27.3v12.2C234.3,359.3,246.5,371.5,261.6,371.5z"/>
	<path id="XMLID_1290_" class="st4" d="M207.1,420.3h317c15.1,0,27.3-12.2,27.3-27.3v-12.2c0-15.1-12.2-27.3-27.3-27.3h-317
		c-15.1,0-27.3,12.2-27.3,27.3V393C179.9,408.1,192.1,420.3,207.1,420.3z"/>
	<path id="XMLID_1289_" class="st4" d="M292.8,463.7h191.5c15.1,0,27.3-12.2,27.3-27.3v-12.2c0-15.1-12.2-27.3-27.3-27.3H292.8
		c-15.1,0-27.3,12.2-27.3,27.3v12.2C265.5,451.5,277.7,463.7,292.8,463.7z"/>
</g>
<g id="XMLID_1285_">
	<path id="XMLID_1287_" class="st5" d="M647.2,140.6c0,0,43.4-100.6,128.6-81.3C775.8,59.3,754.8,152.9,647.2,140.6z"/>
	<path id="XMLID_1286_" class="st5" d="M638.6,133.9c0,0-27.3-39.5,2.9-87.3C641.5,46.6,675.2,88.5,638.6,133.9z"/>
</g>
<g id="XMLID_1091_">
	<g id="XMLID_1092_" class="st6">
		<g id="XMLID_1273_" class="st6">
			<g id="XMLID_194_">
				<defs>
					<path id="XMLID_195_" d="M393.1,556.6c-0.3-3.2-0.5-7.4-0.3-10.6c0.3-5.1,0.6-12,1.7-17.1c1-4.9,2.6-11.5,4.3-16.2
						c0.8-2.3,2-5.4,3-7.7c1.1-2.5,2.7-5.7,4-8c2.3-4.2,5.8-9.6,8.7-13.5c2.9-3.8,7.1-8.6,10.5-11.9c2.2-2.2,6.4-6.1,11.6-9.9
						c1.7-1.2,3.9-2.8,5.7-3.9c2.2-1.4,5.3-3.2,7.6-4.4c1.4-0.8,3.3-1.7,4.8-2.4c1.4-0.6,3.3-1.5,4.8-2.1c1.3-0.5,3-1.2,4.3-1.6
						c6.7-2.4,11.8-3.5,14.9-4.2c1.7-0.3,4.4-0.8,6.4-1.1c2.1-0.3,2.4-0.3,4-0.5c2.2-0.2,4-0.3,4-0.3c1.3-0.1,2.3-0.1,4-0.2
						c1.1,0,2.1,0,4.2,0c3.5,0,7.1,0.3,7.3,0.3c0.9,0.1,2,0.2,2.9,0.3c1,0.1,2.4,0.3,3.4,0.4c1.1,0.2,2.5,0.4,3.6,0.6
						c1.5,0.3,3.6,0.7,5.1,1c2.9,0.7,6.7,1.8,9.6,2.6c1.5,0.5,3.5,1.2,5,1.8c1.8,0.7,4.3,1.7,6.1,2.5c2.8,1.3,6.4,3.1,9.1,4.6
						c4,2.3,9.2,5.8,12.8,8.7c1.9,1.5,4.3,3.4,6,5.1c2.9,2.7,6.5,6.5,9.2,9.4c3.3,3.7,7.2,9,9.7,13.2c2.5,4.3,5.6,10.3,7.7,14.8
						c1.1,2.3,2.1,5.5,3,7.9c1.8,4.8,3.1,11.6,4.1,16.7c0.4,2.7,0.8,5.5,1,8.3c4.6,57.5-39.5,108.1-98.5,113
						c59-4.9,103.1-55.5,98.5-113c-0.2-2.8-0.6-5.6-1-8.3c0.4,2.6,0.8,6.2,1.1,8.8c0.1,0.5,0.1,1.3,0.1,1.8
						c0.2,5.2,0.3,12.2-0.3,17.4c-0.6,5-1.7,11.8-3,16.7c-1.3,4.8-3.5,11.1-5.5,15.7c-2.7,5.9-5,10.1-8.1,15
						c-2.6,4-6.5,9.1-9.6,12.7c-3.1,3.6-7.6,7.9-11.2,11c-1.7,1.5-4,3.3-5.8,4.6c-1.7,1.2-4,2.8-5.7,3.9c-1.7,1.1-4,2.5-5.8,3.5
						c-1.9,1.1-4.5,2.4-6.5,3.3c-1.4,0.6-3.3,1.5-4.8,2.1c-1.3,0.5-3,1.2-4.3,1.6c0,0-2.9,1.1-6.9,2.2c-0.9,0.3-2.1,0.6-3,0.8
						c-1.5,0.4-3.5,0.8-5,1.1c-0.8,0.2-3.9,0.8-6.4,1.1c-1.9,0.3-2.4,0.3-4,0.5c-0.5,0.1-2,0.2-4,0.3c-2.8,0.2-5.5,0.3-8.2,0.2
						c-4.2,0-7.2-0.3-7.3-0.3c-1.8-0.2-4.1-0.4-5.9-0.6c-1.2-0.2-2.8-0.4-4-0.6c-1.5-0.3-3.6-0.6-5.1-1c-2.9-0.7-6.8-1.7-9.6-2.6
						c-3.4-1.1-7.9-2.7-11.1-4.3c-2.8-1.3-6.4-3.2-9.1-4.6c-2-1.1-4.6-2.8-6.5-4.1c-3.9-2.6-8.7-6.6-12.3-9.6
						c-1.8-1.5-4-3.8-5.7-5.5c-2.8-2.9-6.2-7.1-8.6-10.3c-1.5-2-3.4-4.7-4.6-6.8c-2.5-4.3-5.6-10.3-7.7-14.8c-1.1-2.3-2.2-5.5-3-7.9
						c-1.6-4.9-3.1-11.6-4.1-16.7C393.6,562.7,393.4,559.2,393.1,556.6z"/>
				</defs>
				<clipPath id="XMLID_246_">
					<use xlink:href="#XMLID_195_"  style="overflow:visible;"/>
				</clipPath>
				<g id="XMLID_1283_" class="st7">
					<path id="XMLID_1284_" class="st8" d="M393.1,556.6c0.3,2.6,0.5,6.1,1.1,8.7c1,5.1,2.3,11.9,4.1,16.8c1.8,4.7,4.2,11,6.6,15.5
						c2.3,4.4,5.7,10.1,8.7,14c6.9,8.8,6.9,8.8,14.3,15.8c3.4,3.2,8.5,6.9,12.3,9.6c1.9,1.4,4.5,2.9,6.5,4.1
						c2.7,1.5,6.3,3.3,9.1,4.6c3.2,1.6,7.7,3.2,11.1,4.3c1.9,0.6,8.7,2.7,14.7,3.6c6.4,1.1,10.9,1.5,17.2,1.6
						c14.7,0.3,26.6-3,30.6-4.1c6.6-1.8,16.8-5.5,28.3-12.8c4.7-3,13.9-9.4,22.8-19.5c7.2-8.2,11.7-15.8,13.8-19.7
						c5.6-10.6,7.5-17,9.4-23.8c1.4-4.9,2.3-11.6,3-16.7c0.4-2.6,0.4-6,0.5-8.6c0.2-3.2-0.1-7.4-0.3-10.6c-0.2-2.6-0.7-6.1-1.1-8.7
						c0.4,2.7,0.8,5.5,1,8.3c4.6,57.5-39.5,108.1-98.5,113c59-4.9,103.1-55.5,98.5-113c-0.2-2.8-0.6-5.6-1-8.3
						c-1-5.1-2.5-11.8-4.1-16.7c-1.6-4.8-4.3-11-6.6-15.5c-1.1-2.1-6.9-13.3-17.4-24.3c-19.2-20.1-40.9-28-55.6-31.1
						c-10.4-2.2-20.9-2.8-31-1.9c-14.8,1.3-25.8,5.2-31.1,7.4c-5.6,2.3-15.9,6.6-28.9,17.3c-4.5,3.8-13.3,11.9-21.2,24
						c-8.6,13.4-12.4,25.9-13.6,30.7c-1.2,4.9-2.6,11.6-3,16.7c-0.2,2.6-0.5,6-0.5,8.6C392.7,549.2,392.8,553.4,393.1,556.6"/>
				</g>
			</g>
			<g id="XMLID_188_">
				<defs>
					<path id="XMLID_193_" d="M393.1,556.6c-0.3-3.2-0.5-7.4-0.3-10.6c0.3-5.1,0.6-12,1.7-17.1c1-4.9,2.6-11.5,4.3-16.2
						c0.8-2.3,2-5.4,3-7.7c1.1-2.5,2.7-5.7,4-8c2.3-4.2,5.8-9.6,8.7-13.5c2.9-3.8,7.1-8.6,10.5-11.9c2.2-2.2,6.4-6.1,11.6-9.9
						c1.7-1.2,3.9-2.8,5.7-3.9c2.2-1.4,5.3-3.2,7.6-4.4c1.4-0.8,3.3-1.7,4.8-2.4c1.4-0.6,3.3-1.5,4.8-2.1c1.3-0.5,3-1.2,4.3-1.6
						c6.7-2.4,11.8-3.5,14.9-4.2c1.7-0.3,4.4-0.8,6.4-1.1c2.1-0.3,2.4-0.3,4-0.5c2.2-0.2,4-0.3,4-0.3c1.3-0.1,2.3-0.1,4-0.2
						c1.1,0,2.1,0,4.2,0c3.5,0,7.1,0.3,7.3,0.3c0.9,0.1,2,0.2,2.9,0.3c1,0.1,2.4,0.3,3.4,0.4c1.1,0.2,2.5,0.4,3.6,0.6
						c1.5,0.3,3.6,0.7,5.1,1c2.9,0.7,6.7,1.8,9.6,2.6c1.5,0.5,3.5,1.2,5,1.8c1.8,0.7,4.3,1.7,6.1,2.5c2.8,1.3,6.4,3.1,9.1,4.6
						c4,2.3,9.2,5.8,12.8,8.7c1.9,1.5,4.3,3.4,6,5.1c2.9,2.7,6.5,6.5,9.2,9.4c3.3,3.7,7.2,9,9.7,13.2c2.5,4.3,5.6,10.3,7.7,14.8
						c1.1,2.3,2.1,5.5,3,7.9c1.8,4.8,3.1,11.6,4.1,16.7c0.4,2.7,0.8,5.5,1,8.3c4.6,57.5-39.5,108.1-98.5,113
						c59-4.9,103.1-55.5,98.5-113c-0.2-2.8-0.6-5.6-1-8.3c0.4,2.6,0.8,6.2,1.1,8.8c0.1,0.5,0.1,1.3,0.1,1.8
						c0.2,5.2,0.3,12.2-0.3,17.4c-0.6,5-1.7,11.8-3,16.7c-1.3,4.8-3.5,11.1-5.5,15.7c-2.7,5.9-5,10.1-8.1,15
						c-2.6,4-6.5,9.1-9.6,12.7c-3.1,3.6-7.6,7.9-11.2,11c-1.7,1.5-4,3.3-5.8,4.6c-1.7,1.2-4,2.8-5.7,3.9c-1.7,1.1-4,2.5-5.8,3.5
						c-1.9,1.1-4.5,2.4-6.5,3.3c-1.4,0.6-3.3,1.5-4.8,2.1c-1.3,0.5-3,1.2-4.3,1.6c0,0-2.9,1.1-6.9,2.2c-0.9,0.3-2.1,0.6-3,0.8
						c-1.5,0.4-3.5,0.8-5,1.1c-0.8,0.2-3.9,0.8-6.4,1.1c-1.9,0.3-2.4,0.3-4,0.5c-0.5,0.1-2,0.2-4,0.3c-2.8,0.2-5.5,0.3-8.2,0.2
						c-4.2,0-7.2-0.3-7.3-0.3c-1.8-0.2-4.1-0.4-5.9-0.6c-1.2-0.2-2.8-0.4-4-0.6c-1.5-0.3-3.6-0.6-5.1-1c-2.9-0.7-6.8-1.7-9.6-2.6
						c-3.4-1.1-7.9-2.7-11.1-4.3c-2.8-1.3-6.4-3.2-9.1-4.6c-2-1.1-4.6-2.8-6.5-4.1c-3.9-2.6-8.7-6.6-12.3-9.6
						c-1.8-1.5-4-3.8-5.7-5.5c-2.8-2.9-6.2-7.1-8.6-10.3c-1.5-2-3.4-4.7-4.6-6.8c-2.5-4.3-5.6-10.3-7.7-14.8c-1.1-2.3-2.2-5.5-3-7.9
						c-1.6-4.9-3.1-11.6-4.1-16.7C393.6,562.7,393.4,559.2,393.1,556.6z"/>
				</defs>
				<clipPath id="XMLID_247_">
					<use xlink:href="#XMLID_193_"  style="overflow:visible;"/>
				</clipPath>
				<g id="XMLID_1275_" class="st9">
					<path id="XMLID_1278_" class="st5" d="M605.9,532.3c-0.1-0.5-0.1-1-0.2-1.5l0.3,1.7L605.9,532.3L605.9,532.3 M416.8,480.9
						c0.1-0.1,0.1-0.2,0.2-0.2c0.2-0.1,0.4-0.2,0.4,0c0,0.1-0.1,0.2-0.2,0.2l0,0l0,0c0,0-0.1,0-0.2,0s-0.1,0.1-0.2,0.1h-0.1
						C416.8,481,416.8,481,416.8,480.9 M417.4,479.8c1.9-2.2,4.4-5.1,6.5-7.1l0,0c0.5-0.5,0.6-0.5,0.6-0.5c-0.1,0.4-1.6,1.6-1.6,1.6
						c-0.1,0-1,1-1,1.1l0,0c0.3-0.1,0.5-0.4,0.9-0.4l0,0c0,0.2-0.1,0.3-0.5,0.8c-1.1,1.3-1.1,1.4-0.9,1.6l-0.7,0.6
						c-0.6,0.6-0.7,0.6-0.8,0.6c0,0-0.2,0-0.5,0.3c-0.6,0.7,0,1,0.6,1.1c0.2,0,0.6,0.1,0.3,0.3c-0.2,0.1-0.6,0.3-1.3,0.2
						c-0.1,0-0.1,0-0.2-0.1c-0.2-0.1-0.2-0.2-0.4-0.3c-0.1,0-0.2,0.1-0.4,0l0,0c0,0-0.1-0.1-0.1-0.2s0.1-0.2,0.1-0.3
						C417.9,479.2,417.9,479.2,417.4,479.8 M396.8,518.9c1.1-3.4,2.6-8,3.9-11.4l-0.1,0.1C400,509.4,398.4,513.4,396.8,518.9"/>
					<path id="XMLID_1276_" class="st5" d="M599.6,587c0.4-1.1,0.9-2.2,1.4-3.4l-0.5,1.4c-0.6,1.6-2.3,6.5-6,13.6l-3.6,6.2l0,0
						c0,0,0,0.1-0.1,0.1C595,597.8,596.8,594.1,599.6,587"/>
				</g>
			</g>
		</g>
		<g id="XMLID_1093_" class="st6">
			<g id="XMLID_186_">
				<defs>
					<path id="XMLID_187_" d="M394.2,565.4c-0.4-2.6-1-6.1-1.1-8.8c-0.2-5.2-0.6-12.2,0-17.4c0.6-5.1,1.5-11.8,2.7-16.8
						c1.2-4.9,3.2-11.2,5.2-15.8c1-2.3,2.3-5.3,3.5-7.5c1.4-2.6,3.3-6,4.8-8.4c2.5-4.1,6.5-9.1,9.6-12.8c3-3.6,7.6-8,11.2-11.1
						c1.7-1.5,4.2-3.4,6-4.8c1.7-1.2,3.9-2.8,5.7-3.9c1.8-1.1,4.3-2.7,6.2-3.7c2.8-1.5,6.7-3.4,9.6-4.7c1.6-0.7,3.8-1.6,5.5-2.2
						c1.1-0.4,2.6-0.9,3.7-1.3c1.1-0.3,2.5-0.8,3.5-1.1c0.9-0.3,2.2-0.6,3.1-0.8c2.2-0.5,3.1-0.8,5-1.2c3.7-0.8,6.3-1.1,8.5-1.4
						c0.9-0.1,4.2-0.5,7.9-0.7c3-0.1,5.4-0.2,8.4-0.1c1.7,0.1,2.7,0.1,4.9,0.3c0.9,0.1,2.1,0.2,2.9,0.3c3.3,0.3,6.7,0.9,6.7,0.9
						c3.5,0.6,5,0.9,8.9,1.9c1.9,0.5,4.4,1.2,6.2,1.8c1.8,0.6,4.3,1.4,6.1,2.2c3.3,1.4,7.8,3.4,11,5c4.1,2.1,9.3,5.5,13.1,8.2
						c1.9,1.4,4.4,3.3,6.1,4.8c2.6,2.3,6.1,5.4,8.4,7.9c3.3,3.6,7.4,8.8,10.3,12.7c1.5,2,3.2,4.9,4.4,7c2.6,4.3,5.6,10.3,7.3,15
						c0.9,2.4,2.1,5.6,2.8,8c1.1,4.1,2.4,9.6,3.2,13.8c-8.6-53.2-58-91.5-114-86.8c56.1-4.7,105.4,33.6,114,86.8
						c0.3,2.6,1,6.1,1.1,8.8c0.2,5.2,0.6,12.2,0,17.4c-0.6,5.1-1.5,11.8-2.7,16.8c-1.2,4.9-3.2,11.2-5.2,15.8
						c-1,2.3-2.3,5.3-3.5,7.5c-1.4,2.6-3.3,6-4.8,8.4c-2.5,4.1-6.5,9.1-9.6,12.8c-3,3.6-7.6,8-11.2,11.1c-1.7,1.5-4.2,3.4-6,4.8
						c-1.7,1.2-3.9,2.8-5.7,3.9c-1.8,1.1-4.3,2.7-6.2,3.7c-2.8,1.5-6.7,3.4-9.6,4.7c-1.6,0.7-3.8,1.6-5.5,2.2
						c-1.1,0.4-2.6,0.9-3.7,1.3c-1.1,0.3-2.5,0.8-3.5,1.1c-0.9,0.3-2.2,0.6-3.1,0.8c-2.2,0.5-3.1,0.8-5,1.2
						c-3.7,0.8-6.3,1.1-8.5,1.4c-0.9,0.1-4.2,0.5-7.9,0.7c-3,0.1-5.4,0.2-8.4,0.1c-1.7-0.1-2.7-0.1-4.9-0.3
						c-0.9-0.1-2.1-0.2-2.9-0.3c-3.3-0.3-6.7-0.9-6.7-0.9c-3.5-0.6-5-0.9-8.9-1.9c-1.9-0.5-4.4-1.2-6.2-1.8
						c-1.8-0.6-4.3-1.4-6.1-2.2c-3.3-1.4-7.8-3.4-11-5c-4.1-2.1-9.3-5.5-13.1-8.2c-1.9-1.4-4.4-3.3-6.1-4.8
						c-2.6-2.3-6.1-5.4-8.4-7.9c-3.3-3.6-7.4-8.8-10.3-12.7c-1.5-2-3.2-4.9-4.4-7c-2.6-4.3-5.6-10.3-7.3-15c-0.9-2.4-2.1-5.6-2.8-8
						C396.2,575.1,394.8,569.6,394.2,565.4z"/>
				</defs>
				<clipPath id="XMLID_248_">
					<use xlink:href="#XMLID_187_"  style="overflow:visible;"/>
				</clipPath>
				<g id="XMLID_1170_" class="st10">
					<path id="XMLID_1272_" class="st8" d="M394.2,565.4c-2.3-14.7-1.2-25.1-1-26.2c0.6-5.1,1.5-11.8,2.7-16.8
						c1.2-4.9,3.2-11.2,5.2-15.8c4.6-10.5,8.5-17.5,17.9-28.7c6.6-7.8,16.5-15.9,22.9-19.8s7.7-4.7,15.8-8.4c2-0.9,7.8-3.2,12.8-4.5
						c4.5-1.3,16.5-4.6,32.9-4.1c15.2,0.4,27.4,4.4,29.7,5.2c6,2.1,17.1,5.9,30.1,15.4c8.7,6.4,14.5,12.7,14.5,12.8
						c6.7,7.5,9.2,10.5,14.8,19.6c2.6,4.3,5.6,10.3,7.3,15c0.9,2.4,2.1,5.6,2.8,8c1.1,4.1,2.4,9.6,3.2,13.8
						c-8.6-53.2-58-91.5-114-86.8c56.1-4.7,105.4,33.6,114,86.8c0.3,2.6,1,6.1,1.1,8.7c0.2,5.2,0.6,12.3,0,17.5
						c-0.6,5.1-1.5,11.8-2.7,16.8c-1.2,4.9-3.2,11.2-5.2,15.8c-4.6,10.5-8.5,17.5-17.9,28.7c-6.6,7.8-16.5,15.9-22.9,19.8
						c-6.4,3.9-7.7,4.7-15.8,8.4c-2,0.9-7.8,3.2-12.8,4.5c-4.5,1.3-16.5,4.6-32.9,4.1c-15.2-0.4-27.4-4.4-29.7-5.2
						c-6-2.1-17.1-5.9-30.1-15.4C404.3,610.9,396.2,578.3,394.2,565.4"/>
				</g>
			</g>
			<g id="XMLID_112_">
				<defs>
					<path id="XMLID_185_" d="M394.2,565.4c-0.4-2.6-1-6.1-1.1-8.8c-0.2-5.2-0.6-12.2,0-17.4c0.6-5.1,1.5-11.8,2.7-16.8
						c1.2-4.9,3.2-11.2,5.2-15.8c1-2.3,2.3-5.3,3.5-7.5c1.4-2.6,3.3-6,4.8-8.4c2.5-4.1,6.5-9.1,9.6-12.8c3-3.6,7.6-8,11.2-11.1
						c1.7-1.5,4.2-3.4,6-4.8c1.7-1.2,3.9-2.8,5.7-3.9c1.8-1.1,4.3-2.7,6.2-3.7c2.8-1.5,6.7-3.4,9.6-4.7c1.6-0.7,3.8-1.6,5.5-2.2
						c1.1-0.4,2.6-0.9,3.7-1.3c1.1-0.3,2.5-0.8,3.5-1.1c0.9-0.3,2.2-0.6,3.1-0.8c2.2-0.5,3.1-0.8,5-1.2c3.7-0.8,6.3-1.1,8.5-1.4
						c0.9-0.1,4.2-0.5,7.9-0.7c3-0.1,5.4-0.2,8.4-0.1c1.7,0.1,2.7,0.1,4.9,0.3c0.9,0.1,2.1,0.2,2.9,0.3c3.3,0.3,6.7,0.9,6.7,0.9
						c3.5,0.6,5,0.9,8.9,1.9c1.9,0.5,4.4,1.2,6.2,1.8c1.8,0.6,4.3,1.4,6.1,2.2c3.3,1.4,7.8,3.4,11,5c4.1,2.1,9.3,5.5,13.1,8.2
						c1.9,1.4,4.4,3.3,6.1,4.8c2.6,2.3,6.1,5.4,8.4,7.9c3.3,3.6,7.4,8.8,10.3,12.7c1.5,2,3.2,4.9,4.4,7c2.6,4.3,5.6,10.3,7.3,15
						c0.9,2.4,2.1,5.6,2.8,8c1.1,4.1,2.4,9.6,3.2,13.8c-8.6-53.2-58-91.5-114-86.8c56.1-4.7,105.4,33.6,114,86.8
						c0.3,2.6,1,6.1,1.1,8.8c0.2,5.2,0.6,12.2,0,17.4c-0.6,5.1-1.5,11.8-2.7,16.8c-1.2,4.9-3.2,11.2-5.2,15.8
						c-1,2.3-2.3,5.3-3.5,7.5c-1.4,2.6-3.3,6-4.8,8.4c-2.5,4.1-6.5,9.1-9.6,12.8c-3,3.6-7.6,8-11.2,11.1c-1.7,1.5-4.2,3.4-6,4.8
						c-1.7,1.2-3.9,2.8-5.7,3.9c-1.8,1.1-4.3,2.7-6.2,3.7c-2.8,1.5-6.7,3.4-9.6,4.7c-1.6,0.7-3.8,1.6-5.5,2.2
						c-1.1,0.4-2.6,0.9-3.7,1.3c-1.1,0.3-2.5,0.8-3.5,1.1c-0.9,0.3-2.2,0.6-3.1,0.8c-2.2,0.5-3.1,0.8-5,1.2
						c-3.7,0.8-6.3,1.1-8.5,1.4c-0.9,0.1-4.2,0.5-7.9,0.7c-3,0.1-5.4,0.2-8.4,0.1c-1.7-0.1-2.7-0.1-4.9-0.3
						c-0.9-0.1-2.1-0.2-2.9-0.3c-3.3-0.3-6.7-0.9-6.7-0.9c-3.5-0.6-5-0.9-8.9-1.9c-1.9-0.5-4.4-1.2-6.2-1.8
						c-1.8-0.6-4.3-1.4-6.1-2.2c-3.3-1.4-7.8-3.4-11-5c-4.1-2.1-9.3-5.5-13.1-8.2c-1.9-1.4-4.4-3.3-6.1-4.8
						c-2.6-2.3-6.1-5.4-8.4-7.9c-3.3-3.6-7.4-8.8-10.3-12.7c-1.5-2-3.2-4.9-4.4-7c-2.6-4.3-5.6-10.3-7.3-15c-0.9-2.4-2.1-5.6-2.8-8
						C396.2,575.1,394.8,569.6,394.2,565.4z"/>
				</defs>
				<clipPath id="XMLID_249_">
					<use xlink:href="#XMLID_185_"  style="overflow:visible;"/>
				</clipPath>
				<g id="XMLID_1095_" class="st11">
					<path id="XMLID_1100_" class="st5" d="M436.7,576.7c0-0.4-0.3-0.5-0.9-0.5c-0.2,0-0.4,0-0.4,0.1v0.1c0.2,0.3,0,0.6-0.1,0.7
						c-0.1,0.2-0.2,0.3-0.1,0.4c0,0,0.6,0.3,1.1,0C436.4,577.4,436.7,577.2,436.7,576.7 M425.3,571.9c0-0.3-0.5-0.9-0.7-0.9
						s0,0.8,0.4,1C425.1,572.1,425.3,572.1,425.3,571.9 M423.4,571.4c0-0.2-0.4-0.7-0.5-0.7s-0.2,0.6,0.1,0.8
						C423.2,571.5,423.4,571.6,423.4,571.4 M441.2,572.6c0-0.2-0.4-0.6-0.6-0.6s-0.2,0.5,0.1,0.7C441,572.8,441.2,572.8,441.2,572.6
						 M438.7,569.5c0,0,0-0.3-0.2-0.3s-0.7,0.3-0.5,0.5C438.1,569.9,438.7,569.9,438.7,569.5 M437.3,566.3c0-0.1,0-0.3-0.2-0.3
						c-0.4,0-0.7,0.7-0.5,0.8C436.9,567,437.3,566.6,437.3,566.3 M434.1,565.1c0-0.2-0.6-0.6-0.9-0.6c-0.2,0,0.1,0.4,0.3,0.5
						C433.8,565.2,434.1,565.2,434.1,565.1 M435.3,564.2c0-0.3-0.2-0.5-0.5-0.5c-0.4,0-0.1,0.5,0.1,0.7
						C435.2,564.7,435.3,564.3,435.3,564.2 M437.1,564.5c0-0.2-0.4-0.7-0.5-0.6c-0.2,0-0.3,0.5,0.1,0.7
						C436.9,564.7,437.1,564.7,437.1,564.5 M414.6,560.2L414.6,560.2c0-0.2-0.7-1.3-1.8-1.5c-0.8-0.1-0.2,0.7-0.2,0.7
						C412.9,559.9,414.3,560.2,414.6,560.2 M429,562c0.1-0.2-0.1-0.5-1-0.6c-1.1,0-1.2,0.5-0.9,0.8C427.6,562.7,428.9,562.5,429,562
						 M431.3,561.9c0,0,0-0.3-0.3-0.3s-0.9,0.2-0.8,0.4C430.4,562.1,431.3,562.3,431.3,561.9 M425.2,560.8
						C425.2,560.8,425.3,560.7,425.2,560.8c0.1-0.4-1.6-1.9-4.7-2.4c-1-0.1-1.1-0.1-0.8,0.6c0.4,1,0,1.3-1.4,1
						c-0.4-0.1-0.8-0.2-1.2-0.2c0,0.2,0.6,0.6,1.1,0.7c0.1,0,0.2,0.1,0.3,0.1c0.4,0.1,0.9,0,1.3,0.1c0.6,0.1,1.1,0.5,1.6,0.5
						C422.4,561.3,424.8,561.1,425.2,560.8 M418.8,554.2c0,0,0.1-0.4-0.3-0.4c-0.3,0-1.1,0.4-0.9,0.5
						C417.7,554.4,418.7,554.6,418.8,554.2 M421.4,553.4c0-0.1,0-0.3-0.6-0.4c-0.7-0.1-0.9,0.2-0.8,0.4
						C420.2,553.6,421.3,553.7,421.4,553.4 M417.9,556.9c0,0,0-0.1,0.1-0.1c-0.4-0.7-5.6-5.2-5.7-5.2c-1.3-1-2.2-1.2-3-1.4
						c-2.9-0.3-2.7,0.9-2.6,1s0.3,0.1,0.9-0.1c1-0.3,2.1-0.6,5.1,3.3c0.6,0.7,0.6,1,0.5,1.2s-0.1,0.2,0,0.4c0.5,0.5,1.2,0.4,1.8,0.6
						c0.3,0.1,0.4,0.3,0.7,0.4C416.4,557.3,417.8,557,417.9,556.9 M414.7,548.8c0-0.1,0.1-0.2-0.2-0.4c0,0-0.2-0.1-0.2-0.4
						c0-0.4,0.2-0.7,0.1-1c0,0,0,0,0-0.1c0-0.2-0.1-0.2-0.2-0.2c-0.7,0-0.5,1.4,0.1,2.1C414.5,548.8,414.7,548.9,414.7,548.8
						 M416.5,546c0.1-0.4-0.1-1.1-0.3-1.2c-0.2,0-0.1,1.1,0.1,1.4C416.4,546.2,416.4,546.2,416.5,546 M415.3,544.7
						c0-0.1,0.1-0.2-0.4-0.3c-0.3,0-0.5,0.2-0.5,0.2c-0.1,0.3-0.1,0.7,0,0.8C414.4,545.6,415.2,544.8,415.3,544.7 M437.2,537.4
						c0,0,0-0.3-0.2-0.3s-0.7,0.3-0.6,0.5C436.6,537.8,437.1,537.8,437.2,537.4 M489.9,606c0.3-3.3-8.2-7.3-20.6-6.2
						c-2.8-3-2.8-3-4.5-3.3c-2.1-0.3-3.6,2-5.8,1.3c1.9-1.4,1.9-1.4,1.9-2c-2.5-1.9-4.1,1.9-6.5,1.4c0-0.2-0.1-0.4-0.1-0.6
						c1-1.3,2.6-2.1,3.2-3.7l-4.9-5.8c-2.7-1.8-6-1.2-8.8-2.5c-3.7-1.8-6.1-5.3-9.8-7.2l-10.2-4.4c-1.3-0.3-2.3,1-2.4,1.4
						c-0.1,0.9,0.6,1.8-0.1,2.7c-1.7-0.7-0.8-4.5-0.7-4.5c0.1-0.3,0.2-0.7,0.2-1c-3.4,0.2-3.5,4.6-6.7,5.1c-0.8-0.7-1.4-1.6-2.4-2.1
						c-1-0.4-2.1,0.7-3-0.2c-0.8-0.7-2.2-2.8-2.4-4.8c-0.2-2.4,0.9-4.9-0.2-7.3c-0.8-1.8-3.1-0.5-4.1-1.9c-2.5-3.6,3.8-5.7,1.5-9.2
						c-1.6-2.5-4.5,4.9-6,2.2c-0.9-1.5-0.9-4.8-1-8.2l0.8-3.3c1.3-4.9,1.5-5,2.2-5.4c2.5-1.4,2.6-1.4,3-1.3c1.3,0.3,1.2,2,2.5,2.4
						c3.4-4.4,6.3,2.4,6.3,2.5c0.2,2.2-1.7,4.6,0.5,6.7c1.1-0.9,1.2-1.7,1.3-5.1c0.2-4,0.2-5.2,5.4-7.9
						c-13.1-2.7-21.3-6.7-22.1-11.8c-0.1-0.8-0.1-1.5,0.1-2.3c-2.8,10.5-3.3,17.4-3.4,19.3c0.3-3.4,1.1-10.3,2.3-14.7
						c-2.4,25.4-2.4,25.4,0.8,33.2l0.6-0.2c0.1,0,0.3-0.1,0.5-0.1c2.2,2.1,1.9,5.6,4.5,7.5c0.1,0,0.3-0.1,0.5-0.2
						c3.2,3.8,3,9.7,7.8,12.5c0.3-0.4,0.3-1,0.6-1.5c3-0.5,4.1,7.7,4.1,7.8c0.3,3.5-3.9,7.5,0,10.5c0.2,4.3,0.2,4.3,7.1,12.6
						c15,3.7,38.3,5.4,65,4.4C489.8,607.1,489.8,607.1,489.9,606 M584.2,515.9c0-0.5-0.9-0.4-2,0.1c-0.4,0.2-0.7,0.3-1.1,0.5
						l0.9,0.2C583.2,516.8,584.2,516.4,584.2,515.9 M590.1,511.8c0-0.1-0.1-0.4-0.3-0.3l0,0l0,0c-0.1,0.2,0,0.5-0.1,0.7
						s-0.3,0.3-0.4,0.5v0.1c0,0.2,0.3,0.6,0.4,0.6C589.9,513.5,590.3,512.4,590.1,511.8 M540.2,530.7c10.4-1.9,19.8-4.1,27.8-6.5
						c-1.8-1.2-0.9-5.8-3.7-4.9c-1.4,0.6-2.6,1.6-4.1,2c-4.8,1.2-4.8,1.2-5.6,1.5c-2.4,1.1-4,3.4-6.6,4.3c-0.6,0.2-2.7,0.3-4.1-0.1
						c-0.3-0.1-0.8-0.3-1.1-0.1c-0.2,0.1-0.3,0.2-0.7,1.1C542,528.5,541.7,529.3,540.2,530.7 M571,516.2c-0.1-0.4-1.5-0.1-2,0
						c0,0-1.3,0.5-0.8,0.7c0.2,0.1,2.2,0.6,2.7,0.5C571.2,517.4,571,516.4,571,516.2 M554.6,517.4c0-0.1-0.1-0.3-0.5-0.2
						c-0.7,0.3-0.7,1-0.5,1.1C553.9,518.5,554.7,517.9,554.6,517.4 M562.7,514.8c-0.1-0.3-0.6-1.7-1.3-1.4c0,0-0.7,0.5-0.4,1.2
						c0.1,0.3,0.8,1.4,1.4,1.5C562.9,516.3,563.1,515.8,562.7,514.8 M561.3,511.4c-0.3-0.8-0.5-0.7-0.6-0.7
						c-0.5,0.2-0.6,1.2,0.2,1.5C561.4,512.4,561.6,512,561.3,511.4 M537.8,497.7c0-0.1-0.1-0.2-0.3-0.2c-0.2,0.1-0.5,0.4-0.3,0.5
						C537.5,498.2,537.9,498.1,537.8,497.7 M535.7,497.5c0-0.2-0.1-0.7-1.7-0.3c-0.2,0.1-0.7,0.2-0.9,0.4c-0.1,0-0.1,0.1-0.2,0.1
						c-0.2,0.2-0.4,0.5-0.6,0.7c-0.3,0.3-0.8,0.4-1.1,0.7c-0.2,0.2-0.3,0.5,0.1,0.7c0.5,0.3,0.5,0.3,0.5,0.5c0.1,0.5-0.1,1-0.1,1.5
						c0,1,0.5,1.1,0.7,1.2c0.5,0.1,3-1.7,3-1.7c0.4-0.3,0.5-0.6,0.4-1c-0.3-1.1-0.3-1.1-0.2-1.6
						C535.6,498.2,535.8,497.9,535.7,497.5 M545.3,498.8c0-0.1,0-0.3-0.2-0.4c-0.5-0.3-1,0.4-1.5,0.1c-0.3-0.2-0.5-0.4-0.9-0.7
						c-2.7-2.5-3.4-2.6-5.1-2.8l0.4-0.9l0.4-0.9l-0.8,0.1c-0.8,0-0.9-0.3-0.9-0.4c-0.1-0.2-0.3-0.3-0.3-0.3l0,0
						c-0.9,0.4-0.8,1.3-0.8,1.6c0,0.2,0.1,0.6,0.2,0.8c0.1,0.3,0.4,0.4,0.6,0.7c0.2,0.3,0.1,0.7,0.5,0.9c0.3,0.1,0.8,0,1.1-0.1
						c0.5-0.2,1.6,1.1,1.6,1.1c0.5,0.6,0.6,0.8-0.4,1.5c-0.6,0.4-0.6,0.4-0.4,1c0,0.1,0.1,0.3-0.2,0.7c-0.2,0.3-0.3,0.4-0.2,0.5
						s0.4,0.1,0.6,0.1c1.4,0,1.8,0.1,1.9,0.4c0.1,0.2-0.5,0.6-0.8,0.7c0,0-1.3,0.9-1.5,1.1c0.1,0,6.9-2.3,6.6-2.8
						c-0.1-0.2-0.4-0.2-0.4-0.5C544.7,499.6,545.3,499.4,545.3,498.8 M557.3,483.8c-0.3-0.4-0.6-0.4-0.7-0.3c-0.3,0.1-0.4,0.4,0,0.6
						c0.1,0,1,0.3,0.9-0.1C557.4,484,557.4,484,557.3,483.8 M532.9,487.2c0-0.1-0.3-0.3-0.6-0.2c-0.4,0.1-0.4,0.3-0.2,0.4
						C532.4,487.6,533,487.4,532.9,487.2 M522.7,485.9l0.5-0.7l-1.1-0.4c-0.7-0.2-0.9-0.3-1.3-0.2c-0.8,0.2-1.5,0.7-2.4,0.8
						c-0.4,0.1-0.9,0-1.3,0.1c-0.3,0.1-0.7,0.3-1,0.4c-2.5,1.3-1.5,1.9-1.5,1.9c0.3,0.1,0.6-0.1,0.9-0.1c0.8,0,1.5,0.4,2.3,0.5
						c0.2,0,0.4,0,0.5,0C518.4,488.4,521.9,487,522.7,485.9 M528.2,478.6c0,0-0.1-0.3-0.4-0.2c-0.2,0.1-0.6,0.6-0.5,0.6
						C527.4,479.1,528.2,479,528.2,478.6C528.2,478.7,528.2,478.6,528.2,478.6 M555.3,459.3c0,0-0.4-0.3-0.5-0.1l0.1,1.4
						c0,0.1,0,0.2,0.1,0.4c0.1,0.2,0.1,0.4,0.5,0.8c0.5,0.6,1,1.1,1.6,1.6c0.2,0.2,0.4,0.5,0.6,0.8l0,0c0.1,0.1,0.2,0.1,0.3,0.2
						c0.2,0.2,0.4,0.4,0.6,0.6c0.1,0.1,0.4,0.1,1,0.2l0,0c0.7,0,0.8-0.1,1.1-0.4l-0.6-0.2c-1.3-0.4-3.5-2.3-4.2-4.3
						C555.8,460,555.6,459.6,555.3,459.3 M541.7,465.1c-0.1-0.2-0.4-0.2-0.5-0.2c-0.8,0-1.4,0.5-2.2,0.5c-0.3,0-0.5-0.2-0.8-0.1l0,0
						c0.1,0.1,0.3,0.2,0.3,0.4c0,0.2-0.2,0.3-0.1,0.4c0.1,0.2,0.1,0.2,0.7,0.9l-0.7-0.5c-0.6-0.4-1-0.4-1.1-0.3c0,0,0,0,0.2,0.3
						c0,0.1-0.2,0.3-1.9,0.7c-1.7,0.4-1.7,0.4-1.2,0.8s2.3,0.5,2.6,0.3c0.2-0.1-0.1-0.4,0.1-0.5c0.3-0.1,0.4,0.1,0.7,0.2
						c0.2,0,0.3-0.2,0.5-0.2c0.1,0.3-0.1,0.6-0.5,0.8c-0.3,0.1-0.3,0.2-0.4,0.3c0.2,0.3,0.6,0.3,2.9,0.8l-0.3-1.1
						c-0.3-0.9-0.5-1.2-0.5-1.2s-0.1-0.1-0.1-0.2c0.1-0.2,0.7-0.2,1.2,0.1c0,0,0.5,0.2,0.6,0.5c0.1,0.1,0.1,0.1,0.2,0.1l0,0
						c0.3-0.1,0.4-0.4,0.7-0.4c0.3-0.1,0.4,0.3,0.7,0.2c0.1,0,0.1-0.2,0.1-0.2c-0.1-0.2-1.1-0.5-1.2-0.5c-0.4,0.1-2.4-0.3-2.4-0.6
						c0,0,0.1-0.1,0.3-0.1C541.7,466.1,541.8,465.5,541.7,465.1 M592.5,495.5c0.1,0.1,0.3,0.6,0.2,0.8h-0.1c0,0.2,1.2,1.7,1.2,1.7
						s1.9,2.5,2.3,4.8l0,0c-0.3-0.1-0.5-0.3-0.8-0.4l-0.9-0.4c-1.2-2.3-1.7-3.3-2.3-4.1c-0.4-0.6-3.2-3.5-3.6-3.6
						c-0.5-0.2-0.7-0.3-1.6-3.2c-0.4-1.4-0.8-2.6-0.2-2.5c0.5,0.1,1.8,1.4,1.8,1.9c-0.1,0-0.1,0-0.2,0c0,0,0,0-0.1,0
						c-0.1,0.4,0.2,1.3,1,2.5c0.5,0.7,1.4,1,2,1.6c0-0.2-0.1-0.4-0.1-0.6C591.5,494.1,592.4,495.3,592.5,495.5 M597.9,505
						c-7.6-16.7-19.5-30.9-34.3-41.4l0,0c0.1,0.1,0.2,0.2,0.3,0.3c-1.4,0.3-1.8,0.4-2.6,0.8c0,0.1,0,0.2,0,0.4
						c0.1,0,0.2,0.1,0.3,0.1c0-0.1,0.1-0.2,0.2-0.3c0.6,0.2,0.6,0.2,1.1,0.6c0,0-0.1,1.5-0.2,1.7c-0.2,0-0.5,0-0.7,0
						c-0.2,1,0.6,1.9,0.4,2.9c-0.7,0-1.3-0.8-2.1-0.4c2,1.8,2,1.8,2.3,4.1c-0.1,0.1-0.1,0.1-1.3,0.3c0.5,0.4,1.6,0.3,1.5,1.1
						c-1.1,0.9-5.5-1.2-5.8-1.7c0.9-1.1,4,0,3.5-1.8c-0.3-1-3.1-0.9-4.2-0.7c-8,0.8-8,0.8-8.7,2.1c-0.5,0.8-1.2,1.4-1.5,2.3
						c0,0.1-0.1,0.3-0.1,0.4c-0.4,1.8,0.7,3.5,0.2,5.3c-0.5,1.7-2.4,2.7-2.6,4.5c-0.1,1.1,2,2.9,2,2.9c0.6,0.4,1.5,0.9,2.5,0.8l0,0
						l0,0l0,0l0,0l0,0l0,0l0,0l0,0c0.7-0.4,0.8-0.5,1.6-1.9l1.4,0.8c1.5,0.9,2.3,2.9,4.4,2.9c0.1,0,1.3-0.9,0.8-2.7
						c-0.1-0.3-0.2-0.6-0.3-0.9c-0.3-1.1,0.7-2.9-0.9-3.3c-1.6-0.3-3.8-0.8-2.4-7.4c0.1-0.1,0.2-0.1,0.3-0.2
						c3.1,0.7,1.5,4.7,4.1,5.8c1.9,0.8,2.7,0.1,3.1-0.3c1.3-1.2,2.4-0.9,2.4-0.9c1,0.7-0.4,1.6-0.4,1.6c-0.6,0.4-1.5,0.4-2,1
						c0.2,1.2,2.3,0.9,2,2.4c-0.6,0.3-1.2,0-1.8,0.4c0.1,1.4,2,2.1,1.4,3.8c-0.1,0.2-0.2,0.5-0.4,0.7c-1,0.7-2.2,0.9-3.2,1.7
						c0,0-3.7,1.1-3.8,1.1c-0.6,0-2-1-2-1c-0.1-0.1-0.2-0.1-0.2-0.2c0.1,0,0.2-0.1,0.3-0.1c0.2,0.1,0.4,0.2,0.6,0.2
						c0-0.1,0-0.2,0-0.3c0.3-0.1,0.7,0,1-0.1c0.2-0.3,0.3-1-0.6-1.5c-0.6,0.3-0.9,1-1.5,1.3c-0.4-0.2-0.4-0.2-1.4-2.4l-0.4,0.7
						c-0.8,1.8,0.7,3,1.7,3.5c0.2,0.9-0.2,1.5-1.2,2c-0.2,0.1-0.6,0.3-0.9,0.5c-0.7,0.7-0.7,0.7-3.7,6.1c-1.3,2.4-4.8,1.7-6.2,4
						c1.6,1.1,4.1,0.8,5.1,3c1.7,3.7-0.4,4.1-1.6,4.4c-1.8,0.4-4.3,0.5-5.6,0.6c-1.9,0.1-2.3,0.9-2.3,0.9c-0.6,1,0.7,9.1,1.9,9.6
						c1.7,0.8,3.7,0.7,5.5,1.3c7-4.7,7-4.7,6.8-6.3c-0.5-3.8,3.1-5.9,3.2-5.9c0.2-0.8-0.8-1.6,0-2.3c1-0.9,2.3-0.5,3.4-1.1
						c1.1-0.6,1.5-1.9,2.6-2.5c0.2-0.1,0.5-0.2,0.7-0.2c0.1,0,0.3,0.1,0.5,0.1c1.7,0.7,2.9,2.2,4.5,2.9c1.4,0.6,3,0.4,4.4,1.1
						c0.3,0.2,1.3,1,1.7,1.7c0.3,0.5,0.4,1.2,0.5,1.7l0.4-1c0.3-1.1-0.8-1.8-0.9-2.7c0.3-0.2,0.3-0.2,1.8-0.6
						c-0.2-0.4-0.2-0.4-1.4-0.7c-3.6-0.8-7.7-3.3-7.7-3.3c-2.6-1.8-0.3-2.2-0.3-2.2l8.1,2.6c0.2,0.1,0.4,0.2,0.5,0.3
						c1.2,0.8,1.6,2.4,2.7,3.3c1,0.8,2.5,0,3.5,0.9c0,0.4,0,0.4-0.6,0.9c0,0.6,1.4,1.7,2,1.7c1.6-2.4-4.1-5.3-1.3-5.9
						c-0.2-2.3,2.4-2.1,3.6-3.2l-0.8-0.4c-2.1-1-2.7-8.1-2.1-8.9c0.6,0,1.1,0.4,1.7,0.5c0.7,1.3,0.7,1.3,1.5,1.5
						c0.5-0.4,0.6-1.2,0.6-1.7c-2.6,0.5-0.6-3.6-0.6-3.7c0.6,0.4,1.9,3.8,1.9,3.8l1.9,0.6c5.2,1.7,2.9,4.7,2.8,4.7
						c-1.3,0.8-2.9-0.6-4.2,0.5l-3.7,5.9c0.5,0.6,2.8,3.7,4.4,3.8c0.3,0,0.6,0,0.8-0.1c0.5-0.2,0.3-0.9,0.8-1.1
						c0.7-0.3,1.4,0.5,2.1,0c0.7-0.5,0.6-1.5,1.2-2c0.5,0.1,0.5,0.1,2.2,4.3C596.3,510.8,598.3,507.9,597.9,505 M562.9,463.1
						c-1.3-0.9-2.7-1.8-4-2.7h-0.1h-0.1c-0.1,0.2,0.7,1.1,1.6,1.6c0.3,0.2,0.7,0.4,1,0.6C561.9,462.8,562.4,462.9,562.9,463.1
						L562.9,463.1 M518.6,469C518.6,469,518.5,469,518.6,469c-1,0-1.8,0.5-2.7,0.5c-0.4,0-0.9-0.1-1.1-0.1c-2.6-0.7-5.5-0.2-5.8-0.2
						c-4.2,0.8-8.4,2.1-12.7,2.7c0.6,4.8,1.3,10,2,15.6c2.2-0.7,3.9-2.5,6.1-3.3c2.5-1,5.2-1.1,7.7-2.1c0.8-0.3,0.9-0.4,0.9-0.6
						c-0.1-0.2-0.4-0.6-1.8-0.2c0,0-1.3,0.4-1.6-0.1c0.1-0.4,0.6-0.4,0.9-0.7c-0.1-0.3-0.5-0.4-0.6-0.7c0.4-0.5,2,0.1,2.2,0.2
						c1.5,0.6,1.5,0.5,2.7-0.1l-1-0.4c-3.1-1.3-3.1-1.3-3.1-1.3c0.2-0.2,0.3-0.3,1.1-0.4c1.2-0.3,2.6-1.3,3-1.8
						c0.1-0.1,0.2-0.2,0.2-0.3l0.7-2.4c0-0.4-0.4-0.5-0.5-0.8c0,0-0.5-1.5,2.1-2.4C517.3,470,518.6,469.5,518.6,469 M483.1,651.7
						h0.7H483.1c-1.1-0.3-2.3-0.6-2.8-0.7c-2.1-0.5-2.2-0.5-2.3-0.5c-0.2,0.1,0.1,0.3,0.4,0.5C479.6,651.5,481.5,651.6,483.1,651.7
						 M485,650.2c-0.1-0.1-1.5-0.2-2.1-0.2c-0.3,0-0.3,0-0.4,0l0,0c0.1,0.1,0.2,0,0.2,0.1s-0.1,0-0.2,0c0,0,0.9,0.3,1,0.1
						c0.1-0.3,0.4-0.2,0.4-0.2v0.1c-0.1,0.2,0.1,0.3,0.3,0.3C484.6,650.6,485,650.3,485,650.2L485,650.2 M486.8,610.6
						c-26.6,0.9-49.9-0.8-64.9-4.5c1.1,1.2,5.6,6.1,5.7,6.2c3.5,3.5,8.7,4.7,11.7,8.7c8.8,11.7,8.8,11.7,10.5,13.3
						c7,6.5,7,6.5,7.9,7.2c2.4,1.7,5.5,2.2,7.6,4.4c-0.1,0.1-0.2,0.2-0.3,0.2c0.1,0.1,10.3,4.9,12.1,4.2c-0.2-0.2-0.6-0.4-0.9-0.6
						l-5.4-3.2l-0.9-1.9c-0.9-0.7-2-0.9-2.9-1.5c0.1-0.1,0.2-0.2,0.2-0.2c0.7,0.1,1.3,0.4,1.9,0.5c0.1-0.4,0.1-0.4-1.2-1.6
						c1.2-0.7,4,0.6,3.7-1.2c-0.1-0.7-0.8-1-4.4-2.7c0.1-0.1,0.2-0.2,0.2-0.3c5,0.5,5,0.5,5.3,0.2c2.1-2.3,1.5-7.4,1.4-7.4
						c-0.3-0.3-0.6-0.7-0.8-1c0.1-0.1,0.1-0.3,0.2-0.5c2.4-3.3,7-0.4,9.4-3.5c0.7-0.9,2.5-5.4,0.9-10
						C483.6,614.5,483.6,614.5,486.8,610.6 M570.1,581.7c0-0.1,0-0.3-0.2-0.2s-0.5,0.4-0.5,0.4c-0.1,0.1-0.1,0.2,0,0.2
						C569.6,582.2,570,582.1,570.1,581.7 M572.5,576.8c0,0,0-0.3-0.2-0.2s-0.7,0.6-0.5,0.7C572,577.3,572.4,577.2,572.5,576.8
						 M514.8,566.7c0-0.2-0.2-0.4-0.6-0.4c-0.5,0.1-0.6,0.5-0.3,0.7C514.3,567.2,514.8,567,514.8,566.7 M509.3,564.1
						c0-0.3-0.3-0.4-0.6-0.4c-0.3,0.1-0.4,0.3,0.1,0.6c0.1,0.1,0.3,0.2,0.4,0.1C509.3,564.4,509.3,564.3,509.3,564.1 M602.1,516
						c-1.2-3.8-2.6-7.4-4.3-11c0.5,2.9-1.5,5.9-5.6,8.8c0.5,1.4,1.5,4.6,0.4,5.5c-1.6,1.2-4.8,3-9,2.2c-0.7-0.1-2.1-0.4-2.7,0
						c-2.2,1.2,1.2,4.2-1.1,5.1l-4.3-0.4c-2.3-1.2-5-0.7-7.4-1.9c-8.1,2.4-17.5,4.6-27.9,6.5c-1.6,1.5-1.6,1.5-2.3,2.5
						c-1.1,1.6-0.5,3.7-1.5,5.3c-1.7,2.7-4.7,4.2-6.4,6.9l-4.6,8.1c-0.1,0.4-0.2,0.9-0.2,1.2c0,2.2,1.9,3.8,1.9,6
						c0,2-2.1,3.3-1.9,5.4c0.1,1,1.1,1.2,1.5,1.9c-0.1,0.1-0.2,0.3-0.3,0.4c0.2,0.1,0.4,0.3,0.5,0.4c-0.3,0.2-0.8,0.5-1.1,0.7
						c0.1,0.1,0.2,0.3,0.3,0.5c0.4,0.1,0.8,0.2,1.2,0.2c-0.1,0.2-0.1,0.4-0.2,0.6l8,6.9c0.8,0.6,2.8,2,5.3,2.8c4,1.3,7.3-1.2,11-1.8
						c0.3,0,0.7-0.1,1-0.1c5.3,0.1,12.6-9.5,15.3-2.7c1.9,0.2,4.3-1.8,5.7,0.5c1.9,3-1.6,5.4-0.9,8.3c0.5,1.8,2.4,2.4,3.1,4
						c1.1,2.6,0.4,5.4,0.7,8c11.3-3.7,19.4-7.7,23.3-11.8c7.8-33.5,7.8-33.5,7.3-42.5v0.9c0,1.7-0.3,3.1-0.7,4.4
						c-0.1,0-0.3-0.1-0.5-0.2c-1.3-4.7-4.3-8.7-5.4-13.4c-1.1-4.9-6.4-7.5-7.3-12.5c0.6,0.3,0.6,0.3,2.2,2l-0.3-1.1
						c-0.1-0.3-0.1-0.7,0-1.1c3.2,3.7,6.3,9.5,8.2,13.6c1.4,2.9,1.4,6.1,2.5,9c0.6-1.2,1.4-4.4,0.1-13.2c-0.6-3.7-1.4-7.4-2.4-11
						v0.2c0,0.1,0.1,0.3,0.1,0.5c-0.3-0.3-0.3-0.3-0.6-1.3c0,0.3,0.1,0.7,0.1,1c0,0-2.8-6.2-3-7.3C601.2,513.5,601.2,515,602.1,516
						C602,515.9,602.1,515.9,602.1,516 M460.5,515.3c0-0.1,0.1-0.3-0.2-0.3c-0.5,0.1-0.5,0.9-0.4,1S460.4,515.6,460.5,515.3
						 M405.8,498.8c0.1-0.1,1.5-3,1.5-3.4l0,0c0,0-0.2,0-0.9,1.6C405.9,498.1,405.7,498.7,405.8,498.8L405.8,498.8 M465.3,513.9
						c0.1-0.1,0.1-0.4-0.1-0.8c0-0.1-0.1-0.1-0.1-0.2c-0.1-0.2-0.4-0.7-1.3-0.9c-0.5-0.1-1.4-0.4-1.4-1.1c0-0.6,1.6-1.6,0.8-1.5
						h-0.1c-1.1,0.6-1.9,1.2-6.4,4.7l1.4,0.2C464.1,515.1,465.3,513.9,465.3,513.9 M411.7,488.8c0.2-0.2,0.3-0.4,0.3-0.4
						s-0.3,0.2-0.4,0.4c-0.1,0.2-0.5,0.8-0.5,0.8l0,0C411.1,489.6,411.5,489,411.7,488.8 M413.3,486.5c0.1-0.2,0.1-0.2,0.1-0.2
						c-0.1,0-0.7,0.7-0.7,0.8C412.8,487.1,413.2,486.6,413.3,486.5 M450.4,490.6c0.5-0.9-0.7-1.8-1.7-1.8c-1.1,0.1-2.7,1.4-2.4,1.7
						c0.1,0.1,0.2,0.1,0.3,0.1c0.7,0.1,1.3-0.3,2-0.1c0.3,0.1,0.6,0.3,0.6,0.3c0.2,0.1,0.4,0.3,0.5,0.3
						C450.1,491.1,450.4,490.6,450.4,490.6 M446.5,483.4c0.1-0.1-0.1-0.4-0.6-0.4c-0.9,0-1.5,0.4-1.5,0.4c-0.3,0.2-0.2,0.7-0.1,0.8
						C444.5,484.4,446.5,483.4,446.5,483.4 M424.7,519.8c-0.3,0.3-2.2,1-3.1,0.9c-1.2-0.3,0.3-1.2,0.3-1.2c0.7-0.4,2-0.7,2.3-0.7
						C424.7,518.8,424.8,519.5,424.7,519.8C424.8,519.8,424.7,519.8,424.7,519.8 M430.2,518.2c0,0-1,0.9-2.4,0.7
						c-1-0.2-0.7-0.8-0.3-1c0.9-0.6,2.8-0.6,2.8,0.1C430.3,518.1,430.3,518.2,430.2,518.2 M427.4,515.9c-0.1,0.1-0.3,0.5-0.6,0.7
						c-0.5,0.2-0.8-0.4-1.3-0.2c-0.2,0.1-0.3,0.3-0.4,0.4c-0.2,0.3-0.7,0.8-1.3,0.9c-0.6,0.2-0.8,0-1.1-0.5l-0.4-0.7
						c1.5-1.5,1.7-1.6,1.8-1.8c0.1-0.3-0.6-0.4-1-0.4c-0.8,0.1-2.2,0.7-4,3.1c-1,1.3-2.1,2.3-2.4,1.9c-0.6-0.9,0-1.6,1.4-3.2
						c2.1-2.4,3-2.8,4.6-2.9c0.6,0,0.9-0.1,1-0.3c0.1-0.1-0.1-0.2-0.2-0.3c-0.4-0.2-1-0.1-1.4-0.4c-0.5-0.3-0.6-1.1-1.3-1
						c-0.5,0-1,0.4-1.5,0.4c-0.3,0-0.6-0.2-0.7-0.4l-0.5-0.5c1.1-0.7,1.6-0.9,1.9-1c0.1,0,0.2-0.1,0.2-0.2c0.1-0.4,0.1-0.5,0.4-0.4
						l0,0l0,0l0,0l0,0l0,0l0,0l0,0l0,0c0.4,0.1,0.9,0.1,1.6,0c1.3-0.2,2.1-0.1,2.6,0.3c0.4,0.4,0.5,1.5,0.1,2.3
						c-0.6,1.3,0.2,1.8,0.2,1.8c0.3,0.2,0.6,0.1,0.7,0c1-0.3,1.4,0.6,1.4,0.6c0.1,0.1,0.1,0.3,0.1,0.4
						C427.5,514.7,427.7,515.3,427.4,515.9 M465.6,506.3c0.6-1.1-1-2.1-2.9-1.5c-0.9,0.3-0.9,0.3-1.3,0.3c-0.1-0.1-0.2-0.2-0.2-0.3
						c0.3-0.4,1.1-0.4,1.2-1.1c0.3-1.4-0.3-2.7-0.1-4.1l0.1-3.5l-1.4,0.8c-1.5,0.8-2.1,1.1-4.1,1.9l-0.5-0.8
						c-0.6-1.2,1.2-2.2,0.4-3.4c-0.4-0.7-2.3-1.8-3.7-1.8c-2.4-0.1-6.5,4.1-6.7,4.9c-0.4,1.4-0.6,1.7-1.4,2.4
						c-1.6,1.3-3.6,1.6-5.2,2.8c-1.3,1-1.9,2.5-3.2,3.4c-0.8,0.6-1.1,0.6-1.6,0.6c-1.7-2.1,1.5-3.6,1.7-5.5c-5.1-4-5.7-4.4-4.7-6.5
						c0.3-0.7,10-5.4,10.1-5.4c4.1-0.3,4.1-0.3,4.4-0.3l-0.2-0.8c0-0.3,0-0.6,0.1-0.9c0.2-0.1,0.6-0.1,0.7,0.1
						c1.6,1.3,7.8,0.1,10-2.9c-1.8-2.6-4.3,1.3-6.5,1.5c-0.1-0.1-0.2-0.2-0.3-0.3c0.3-0.6,0.9-1,1.3-1.5c-0.3-0.3-0.3-0.4-1-0.3
						c-0.1-0.1-0.2-0.1-0.3-0.2c0-1,1.2-1.5,1.2-2.6c-0.1,0-0.2,0-0.3-0.1c-1.1,0.2-2.5,0.8-3.1,1.1c-0.6,1.9-0.6,1.9-4.7,3.3
						c-4.4-3.4-5.8-2.6-8.6-0.6l0.3-1c0.1-0.2,0.2-0.6,0.2-0.8c-0.7-0.5-1.8-0.1-2.4-0.9c0.2-0.2,0.2-0.2,1.1-0.7l-3.2-3.3
						c-0.2,0-0.5,0-0.8,0c-1-0.7-2.4,0.3-3.3-0.7c-0.2-0.2-0.2-0.2-0.4-3c-0.3-4.1-0.3-4.1-2.4-2l-0.2,0.2c0.1-0.1,0.2-0.2,0.3-0.3
						c-1.9,2.1-4.6,4.9-6.4,7.1l0,0l-12.5,20.8c0.1-0.4,0.3-0.8,0.4-1.2c-2.4,2.4-5.4,9.4-8.4,19.5v0.1c0,0.1-0.1,0.3-0.1,0.4
						c-0.2,0.8-0.3,1.6-0.1,2.3c0.8,5,9,9.1,22.1,11.8c3.7-1.8,3.7-1.8,4.3-2.7c0.9-1.4-0.1-3.8,2.1-4.4c0.1,0.2,0.2,0.5,0.2,0.8
						c4.5-3.5,4.5-3.5,5-3.7c0.1-0.1,0.2-0.1,0.3-0.2c1.5-0.8,3.2-0.7,4.6-1.4c1.1-0.6,1.6-1.9,2.8-2.4c0.1,0,7.3-2.9,9.4-2.3
						c0,0.1,0,0.3-0.1,0.4c-1.1,0.7-2.6,0.7-3.5,1.7c0,0.1,0.1,0.2,0.2,0.3c0.2,0,4.8-0.6,8.9-2.8l-1.5,0.2
						c-3.7,0.3-4.1-2.3-3.4-2.9c0.7-0.7,1.6-1.2,2.1-2c-2.3-2.6-4.8,1.5-7.3,0.9c0-0.1,0-0.3,0-0.4c0.2-0.1,4-2.9,10-2.6
						C462,510.3,465.5,506.4,465.6,506.3 M442.5,482.6l1.6-0.5l-0.4-0.6l-0.3-0.6l1-0.9c1.3-1,1.5-1.3,1-1.3
						c-0.4,0.1-0.9,0.2-1.4,0.6c-0.9,0.5-1,0.5-1.2,0.4c-0.1-0.5,0.5-0.7,0.6-1.2c-0.6-0.2-0.9,0.5-1.5,0.3s-0.9-0.9-1.6-1
						c-0.3-0.1-0.4-0.1-0.8-0.1c-0.5,0-2.5,0.4-2.4,0.6c0.2,0.6,0.2,0.6,0.2,0.7c-0.1,0.1-0.1,0.1-1,0.3v0.1c0.4,0.4,1,0.3,1.3,0.9
						c0.1,0.2-0.4,0.3-0.8,0.3s-0.4,0-2-0.3l0.3,0.9c0.3,0.7,0.6,1.3,1.5,1.4c1,0.2,1.9-0.8,3-0.4c0.5,0.1,0.8,0.7,1.4,0.7h0.1
						C441.5,482.9,442.1,482.7,442.5,482.6 M470.9,488.2c0-0.1,0-0.3,0-0.4c-0.3-0.8-1.4-1-1.8-1.8c-0.3-0.7,0.6-1.3,0.1-2
						c-0.6-0.7-1.6-0.7-2.3-1.3c-0.3-0.3-0.4-0.8-0.7-1.1c0,0,0,0-0.1,0s-0.2-0.1-0.5,0c-0.8,0.3-0.8,0.3-1,0.3
						c-1.3,0-1.5-1.8-2.8-1.7c-1.1,0.1-2.4,0.8-2.6,1c-0.9,0.6-1.1,0.5-1.3,0.5c0-0.4,0.4-0.7,2.3-2l-1.1,0.1
						c-0.8,0.2-6.2,2.1-4.4,3.1c0.1,0,0.7,0.4,1.6,0.3c0.1,0,0.2,0,0.3,0c0.1,0,0.1,0,0.2,0c0.9,0,1.7,0.5,2.6,0.5
						c0.8,0,1.5-1,2.4-0.4c0.1,0.1,0.6,0.4,0.8,0.8c0,0.1,0.1,0.2,0.1,0.2c0.5,0.8,0.5,1.9,1,2.7c0.3,0.4,0.9,0.4,1.1,0.9
						c-0.1,0.1-0.2,0.3-1.2,0.5c-0.6,0.1-1.1-0.2-1.6-0.3c-0.6-0.1-1.9,0.3-2.6,1.1c-0.2,0.2-0.3,0.3-0.6,0.4
						c-0.3,0.1-1-0.1-1.3-0.1c-0.2,0-1.8-0.3-2.7,0.2c-0.4,0.2-0.2,0.8,1.3,0.5c1.3-0.2,1.5-0.3,1.9-0.2c0.6,0.1,0.7,0.6,0.9,1
						c0.5,1.7,2.4,2.8,3.7,2.7c0.8-0.1,0.8-0.4,0-1.1c-1.2-0.9-0.4-1.3,0.7-1c0.1,0,0.3,0.1,0.4,0.2c1.2,0.6,1.2,0.6,1.2,0.5
						c0,0,1.3-0.6,0.9-2.3c-0.2-0.9-0.3-1,0.6-1.4c1.3-0.5,2.1,1.4,3.5,0.7C470.3,489.1,470.8,488.3,470.9,488.2 M456,479.6
						c0.1-0.1,0.2-0.5-0.8-0.5c-1.9,0.1-3.3,1-3,1.3c0.1,0.1,0.2,0.1,0.3,0.1l0,0c0.3,0,0.5-0.1,0.8-0.2c0.6-0.1,1.1-0.1,1.7-0.2
						C455.4,479.9,455.8,479.8,456,479.6 M452.2,478.9l0.1-0.1l0,0h-0.1c-0.9,0-2.3,0.5-2.7,0.8c-0.5,0.4-0.7,0.3-1.8-0.2l0.3,0.5
						c0.3,0.5,0.2,0.7,0.1,0.8c0,0.1-0.1,0.2,0,0.3c0.1,0.1,0.6,0,0.8,0C449.4,480.8,451.3,480.1,452.2,478.9 M440.2,477.4l1.3-0.1
						l-0.5-0.6c-0.5-0.6-0.8-0.7-1.3-0.8c-1.6-0.1-6.1,1.4-5.4,2.4c0.1,0.1,0.1,0.1,0.6,0C436.4,478.1,438.9,477.5,440.2,477.4
						 M465.9,478.8l1.1-0.5l-0.7-0.2c-0.1,0-0.2,0-0.2-0.1c-0.2,0-0.2,0-3.2-0.1c-1,0-1.3-0.2-1.7-0.6c-0.4-0.3-0.6-0.5-0.9-0.5
						c-0.8,0-2.1,0.8-2.2,1.3c0.6,0.3,5.8,1,6.2,1C464.6,479.3,465.2,479.1,465.9,478.8 M467.2,473.8c0.1-0.1,0.1-0.7-0.8-0.7
						s-3.4,0.8-3.1,1.2c0,0.1,1,0.6,1.8,0.5C465.6,474.7,467,473.9,467.2,473.8 M498.3,487.5c-0.7-5.6-1.3-10.8-2-15.6
						c-2.3,0.3-4.7,0.3-7,0.5c-2.6,0.3-4.9,1.6-7.4,2.3c-1.6,0.5-3.3,0.3-4.9,0.9c-0.4,0.1-0.6,1.2-0.3,1.4c2.1,1.6,4.7-0.9,6.7,0.9
						c0.1,0.1,0.6,0.6,0.9,1.2c0.4,0.7,0.3,1.6,0.7,2.3c0.3,0.5,1,0.6,1.2,1.1c0.1,0.1,0.1,0.3,0.1,0.4c0.2,0.5,0.2,1.3-0.7,2.1
						c-1.1,1-2.7,1.3-3.6,2.7c-0.1,0.2-0.3,0.5-0.4,0.8c-0.1,0.5,0.3,0.9,0.3,1.4c-0.1,0.7-0.6,1.2-0.6,1.9c0.3,2.8,5.1,3.7,5.2,3.7
						l0,0l0,0l0,0l0,0l0,0l0,0l0,0l0,0c0.7-0.1,1.2-0.2,2.3-1.3c1.2-1.1,2.1-2.6,3.3-3.8C493.7,488.8,494.5,488.6,498.3,487.5
						 M483.5,472.4l2.2-1.1l-1.3,0.2c-4.7,0.7-9.6,0.5-14.3,1.4c0.8,0.4,3.8,0.4,4.2,0.3c0.4-0.1,0.5,0,0.6,0
						c0.2,0.5-0.8,0.8-0.8,0.8s-0.1,0-0.2,0c-1.5,0.3-3-0.2-4.5,0c-0.8,0.1-0.7,0.4-0.5,0.6c0.1,0.2,0.3,0.6-0.3,0.7
						c-0.6,0.2-1.1-0.1-1.7-0.1c0.2,0.2,0.4,0.3,0.5,0.6c-0.1,0.2-0.3,0.6-2.6,0.5c-1-0.1-1.1,0-1.2,0c0,0,0,0.1-0.1,0.1
						c0.2,0.3,0.5,0.6,2,0.5s1.7,0.1,2.4,0.8l0,0c1.7-0.7,3.4-1.2,5.1-1.9C476.5,474.4,480.2,474,483.5,472.4"/>
					<path id="XMLID_1096_" class="st5" d="M599.8,586.6c0.1-0.2,0.1-0.3,0.1-0.3l0,0c-0.1,0.2-0.2,0.6-0.2,0.6
						C599.7,586.9,599.8,586.7,599.8,586.6 M594.5,598.6c1.3-2.7,3.1-6.2,4.2-8.9l-0.1,0.3c-2.8,6.2-3.5,7.5-7.7,14.7
						C592,602.9,593.5,600.5,594.5,598.6 M597.8,590.2c0,0,1.6-4.4,1.8-5.4c-3.8,4.1-12,8.2-23.3,11.8l0.1,1l-1.4,2.1
						c-4,6.1-3.9,6.9-3.6,9.1c0.3,2.2,0.3,2.2-1.7,9.4c0,0.1-0.1,0.2-0.1,0.3c-0.3,1.2-0.1,2.5-0.3,3.7s-1.9,1.6-1.3,3.1
						c5-0.7,13-9.7,15.3-12.5C588.9,606.5,597.3,591.4,597.8,590.2"/>
				</g>
			</g>
		</g>
	</g>
</g>
<g id="XMLID_1078_">
	<path id="XMLID_1088_" class="st5" d="M500,389.1c-87.8,0-159,71.2-159,159s71.2,159,159,159s159-71.2,159-159
		S587.8,389.1,500,389.1z M501,677.6c-71.5,0-129.5-58-129.5-129.5s58-129.5,129.5-129.5s129.5,58,129.5,129.5
		S572.5,677.6,501,677.6z"/>
	<g id="XMLID_1079_">
		<path id="XMLID_1087_" class="st5" d="M426.2,419.2l-15.3-15.3c-6.5-6.5-16.9-6.5-23.4,0l-31.7,31.7c-6.5,6.5-6.5,16.9,0,23.4
			l16.1,16.1C384.7,452,403.5,432.6,426.2,419.2z"/>
		<path id="XMLID_1086_" class="st5" d="M572.1,675.3l16.9,16.9c6.5,6.5,16.9,6.5,23.4,0l31.7-31.7c6.5-6.5,6.5-16.9,0-23.4L628,621
			C614.6,643.8,595.3,662.5,572.1,675.3z"/>
		<path id="XMLID_1085_" class="st5" d="M629.5,473.7l14.7-14.7c6.5-6.5,6.5-16.9,0-23.4l-31.7-31.7c-6.5-6.5-16.9-6.5-23.4,0
			l-14.4,14.4C597.5,431.6,616.5,450.7,629.5,473.7z"/>
		<path id="XMLID_1084_" class="st5" d="M373.3,619.7l-17.5,17.5c-6.5,6.5-6.5,16.9,0,23.4l31.7,31.7c6.5,6.5,16.9,6.5,23.4,0
			l17.7-17.7C405.7,661.5,386.5,642.5,373.3,619.7z"/>
		<path id="XMLID_1083_" class="st5" d="M358.4,509.1h-23.3c-9.1,0-16.5,7.4-16.5,16.5v44.8c0,9.1,7.4,16.5,16.5,16.5h24.4
			c-3.7-13-5.8-26.7-5.8-40.9C353.7,533.4,355.3,521,358.4,509.1z"/>
		<path id="XMLID_1082_" class="st5" d="M664.9,509.1h-21.1c3.1,11.8,4.7,24.2,4.7,37c0,14.2-2,27.9-5.8,40.9h22.2
			c9.1,0,16.5-7.4,16.5-16.5v-44.8C681.4,516.5,674,509.1,664.9,509.1z"/>
		<path id="XMLID_1081_" class="st5" d="M461.1,688v25c0,9.1,7.4,16.5,16.5,16.5h44.8c9.1,0,16.5-7.4,16.5-16.5v-24.4
			c-12.1,3.2-24.8,4.9-37.8,4.9C487.2,693.5,473.8,691.6,461.1,688z"/>
		<path id="XMLID_1080_" class="st5" d="M538.9,403.7v-20.5c0-9.1-7.4-16.5-16.5-16.5h-44.8c-9.1,0-16.5,7.4-16.5,16.5v21.1
			c12.7-3.6,26.2-5.5,40-5.5C514.2,398.8,526.9,400.5,538.9,403.7z"/>
	</g>
</g>
<g id="XMLID_16_">
	<g id="XMLID_26_">
		<path id="XMLID_303_" class="st12" d="M953.3,815.2c-48.5-51.1-117.6,24.1-166.1-27c6-36.9,12-73.8,18-110.7
			c48.5,51.1,117.6-24.1,166.1,27C965.3,741.4,959.3,778.3,953.3,815.2z"/>
		<g id="XMLID_27_">
			<g id="XMLID_85_">
				<path id="SVGID_9_" class="st4" d="M829.2,754.7c1,0.2,2,0.3,3.1,0.4c0.9,0.1,1.6,0.5,1.9,1.1c0.3,0.6,0.4,1.5,0.2,2.7
					c-0.2,1.1-0.5,2-1,2.6c-0.4,0.6-1.1,0.8-2,0.7c-0.3,0-0.6-0.1-0.9-0.1c-0.2,1.5-0.5,3-0.7,4.6c-0.8-0.1-1.5-0.2-2.3-0.3
					C827.9,762.5,828.5,758.6,829.2,754.7z M830.8,760c0.3,0,0.5,0,0.6-0.1s0.3-0.2,0.3-0.4c0.1-0.2,0.1-0.5,0.2-0.8
					c0.1-0.5,0.1-0.8,0-1.1c-0.1-0.2-0.3-0.4-0.6-0.4c-0.1,0-0.2,0-0.3,0c-0.2,0.9-0.3,1.9-0.5,2.8C830.7,760,830.7,760,830.8,760z
					 M836.5,767.2c-1,0-1.6-0.3-2-0.9c-0.4-0.6-0.5-1.4-0.3-2.4c0.3-1.8,0.6-3.7,0.9-5.5c0.2-1,0.5-1.7,1.1-2.2s1.3-0.7,2.3-0.7
					s1.6,0.3,2.1,0.8c0.4,0.5,0.5,1.3,0.4,2.3c-0.3,1.8-0.6,3.7-0.9,5.5c-0.2,1-0.5,1.8-1.1,2.4C838.2,767,837.4,767.2,836.5,767.2
					L836.5,767.2z M836.8,765.1c0.2,0,0.4-0.1,0.5-0.3s0.2-0.4,0.2-0.8c0.3-1.9,0.6-3.8,0.9-5.7c0-0.3,0-0.5,0-0.6
					c0-0.2-0.2-0.2-0.4-0.2c-0.4,0-0.6,0.3-0.7,0.9c-0.3,1.9-0.6,3.8-0.9,5.6c-0.1,0.3-0.1,0.6,0,0.8
					C836.5,765,836.6,765.1,836.8,765.1L836.8,765.1z M840.4,767.1c0.6-3.9,1.3-7.7,1.9-11.6c0.8,0,1.6,0,2.4-0.1
					c-0.5,3.2-1,6.4-1.6,9.6c0.8,0,1.6-0.1,2.5-0.1c-0.1,0.7-0.2,1.3-0.3,2C843.6,767,842,767.1,840.4,767.1z M847.8,755.3
					c1.1-0.1,2.2-0.2,3.3-0.3c0.9-0.1,1.5,0.1,1.8,0.5c0.4,0.4,0.5,1.1,0.3,2c-0.3,1.8-0.6,3.6-0.9,5.4c-0.2,1.1-0.5,2-1,2.6
					s-1.3,1-2.2,1.1c-1.1,0.1-2.2,0.2-3.2,0.3C846.5,763,847.2,759.1,847.8,755.3z M849.1,764.6c0.4,0,0.7-0.3,0.8-0.7
					c0.3-2,0.6-4,1-6c0-0.3,0.1-0.5,0-0.6c0-0.1-0.1-0.2-0.2-0.2s-0.3,0-0.5,0c-0.1,0-0.2,0-0.3,0c-0.4,2.5-0.8,5-1.2,7.5
					C848.8,764.6,848.9,764.6,849.1,764.6z M852.8,766.2c0.6-3.9,1.3-7.7,1.9-11.6c1.6-0.2,3.2-0.4,4.9-0.7
					c-0.1,0.7-0.2,1.5-0.4,2.2c-0.8,0.1-1.6,0.2-2.4,0.4c-0.1,0.7-0.2,1.5-0.4,2.2c0.8-0.1,1.5-0.2,2.3-0.3
					c-0.1,0.7-0.2,1.5-0.4,2.2c-0.8,0.1-1.5,0.2-2.3,0.3c-0.1,0.9-0.3,1.8-0.4,2.7c0.8-0.1,1.7-0.2,2.5-0.4
					c-0.1,0.7-0.2,1.5-0.4,2.2C856.2,765.7,854.5,765.9,852.8,766.2z M860.5,753.7c1.2-0.2,2.5-0.4,3.7-0.6c0.6-0.1,1-0.1,1.3,0.1
					c0.3,0.2,0.4,0.5,0.5,1c0,0.4,0,1-0.1,1.7s-0.3,1.2-0.5,1.6c-0.2,0.4-0.6,0.7-1.1,0.9c0.4,0,0.6,0.1,0.7,0.4
					c0.1,0.2,0.1,0.6,0.1,1.1c-0.2,1.5-0.5,2.9-0.7,4.4c-0.8,0.1-1.6,0.3-2.4,0.4c0.2-1.5,0.5-3,0.7-4.5c0.1-0.3,0-0.5-0.1-0.6
					s-0.4-0.1-0.7,0c-0.3,1.8-0.6,3.5-0.9,5.3c-0.8,0.1-1.6,0.3-2.5,0.4C859.3,761.5,859.9,757.6,860.5,753.7z M862.9,757.5
					c0.3-0.1,0.6-0.4,0.7-1.1c0-0.3,0.1-0.5,0.1-0.7c0-0.1,0-0.2-0.1-0.3c-0.1,0-0.2-0.1-0.3,0c-0.2,0-0.4,0.1-0.6,0.1
					c-0.1,0.7-0.2,1.4-0.3,2.1C862.5,757.6,862.7,757.5,862.9,757.5z M868.3,763.7c-1.1,0.2-1.9,0.1-2.3-0.3
					c-0.4-0.4-0.5-1.2-0.3-2.4c0.1-0.4,0.1-0.8,0.2-1.1c0.8-0.2,1.6-0.3,2.4-0.5c-0.1,0.5-0.2,1-0.2,1.4c-0.1,0.6,0.1,0.8,0.4,0.7
					c0.2,0,0.4-0.1,0.5-0.3s0.2-0.4,0.2-0.6c0.1-0.4,0.1-0.7,0-0.9s-0.1-0.4-0.3-0.5c-0.1-0.1-0.3-0.3-0.7-0.6
					c-0.3-0.3-0.6-0.5-0.9-0.8c-0.7-0.6-1-1.4-0.8-2.3c0.2-1,0.5-1.8,1.1-2.4c0.6-0.6,1.3-1,2.2-1.2c1.1-0.2,1.9-0.1,2.2,0.4
					c0.4,0.5,0.5,1.3,0.3,2.4c-0.8,0.2-1.7,0.3-2.5,0.5c0-0.3,0.1-0.5,0.1-0.8c0-0.2,0-0.3-0.1-0.3c-0.1-0.1-0.2-0.1-0.4-0.1
					s-0.3,0.1-0.5,0.2c-0.1,0.1-0.2,0.3-0.2,0.4c-0.1,0.4,0.1,0.7,0.5,1s0.8,0.7,1.2,1c0.3,0.2,0.5,0.5,0.7,0.7s0.3,0.5,0.4,0.9
					c0.1,0.3,0.1,0.8,0,1.3c-0.2,1.1-0.5,2-1.1,2.7C870.1,763,869.3,763.5,868.3,763.7L868.3,763.7z M874.9,762.3
					c-1,0.2-1.7,0.1-2.1-0.4c-0.4-0.5-0.5-1.2-0.4-2.2c0.3-1.8,0.6-3.7,0.9-5.5c0.2-1,0.5-1.8,1.1-2.4c0.6-0.6,1.4-1,2.4-1.2
					s1.7-0.1,2.1,0.3c0.4,0.4,0.6,1.1,0.4,2.1c-0.3,1.8-0.6,3.7-0.9,5.5c-0.2,1-0.6,1.9-1.2,2.6
					C876.7,761.7,875.9,762.1,874.9,762.3L874.9,762.3z M875.3,760.2c0.2,0,0.4-0.2,0.5-0.4s0.2-0.5,0.2-0.8
					c0.3-1.9,0.6-3.8,0.9-5.7c0-0.3,0-0.4,0-0.6c0-0.1-0.2-0.2-0.4-0.1c-0.4,0.1-0.7,0.4-0.8,1c-0.3,1.9-0.6,3.8-0.9,5.6
					c-0.1,0.3-0.1,0.6,0,0.7C874.9,760.2,875,760.3,875.3,760.2L875.3,760.2z M881.8,760.9c-0.9,0.2-1.6,0.1-2-0.4
					c-0.5-0.4-0.6-1.1-0.5-2c0.3-1.8,0.6-3.6,0.9-5.3c0.2-1.1,0.6-2.1,1.2-2.7c0.6-0.7,1.4-1.1,2.4-1.3c0.9-0.2,1.6-0.1,2.1,0.3
					c0.5,0.4,0.6,1,0.5,1.9c-0.1,0.7-0.2,1.3-0.3,2c-0.8,0.2-1.6,0.3-2.4,0.5c0.1-0.6,0.2-1.1,0.3-1.7c0.1-0.3,0-0.6,0-0.7
					c-0.1-0.1-0.2-0.1-0.4-0.1s-0.4,0.1-0.5,0.3s-0.2,0.4-0.2,0.7c-0.3,1.9-0.6,3.9-0.9,5.8c0,0.3,0,0.5,0,0.6
					c0.1,0.1,0.2,0.2,0.4,0.1c0.4-0.1,0.6-0.4,0.7-1c0.1-0.7,0.2-1.4,0.3-2.1c0.8-0.2,1.6-0.3,2.5-0.5c-0.1,0.7-0.2,1.5-0.4,2.2
					C885,759.4,883.9,760.5,881.8,760.9L881.8,760.9z M885.6,760.1c0.6-3.9,1.3-7.7,1.9-11.6c0.8-0.2,1.6-0.3,2.4-0.5
					c-0.6,3.9-1.3,7.7-1.9,11.6C887.2,759.8,886.4,759.9,885.6,760.1z M888.6,759.5c1-3.9,2-7.9,3.1-11.8c1.4-0.3,2.8-0.5,4.1-0.7
					c-0.2,3.8-0.5,7.6-0.7,11.4c-0.8,0.1-1.5,0.2-2.3,0.4c0-0.6,0.1-1.2,0.1-1.8c-0.5,0.1-1,0.2-1.5,0.3c-0.1,0.6-0.3,1.3-0.4,1.9
					C890.2,759.2,889.4,759.4,888.6,759.5z M891.9,755.3c0.4-0.1,0.7-0.1,1.1-0.2c0.1-1.9,0.3-3.9,0.4-5.8h-0.1
					C892.9,751.3,892.4,753.3,891.9,755.3z M895.8,758.3c0.6-3.9,1.3-7.7,1.9-11.6c0.8-0.1,1.6-0.2,2.4-0.4c-0.5,3.2-1,6.4-1.6,9.6
					c0.8-0.1,1.7-0.2,2.5-0.3c-0.1,0.7-0.2,1.3-0.3,2C899.1,757.8,897.5,758,895.8,758.3z M901.3,757.5c0.6-3.9,1.3-7.7,1.9-11.6
					c0.8-0.1,1.6-0.2,2.3-0.3c-0.6,3.9-1.3,7.7-1.9,11.6C902.9,757.3,902.1,757.4,901.3,757.5z M907.5,757c-1.1,0.1-1.8-0.1-2.2-0.6
					s-0.5-1.3-0.3-2.4c0.1-0.4,0.1-0.8,0.2-1.1c0.8-0.1,1.6-0.2,2.4-0.2c-0.1,0.5-0.2,1-0.2,1.4c-0.1,0.6,0.1,0.8,0.4,0.8
					c0.2,0,0.4-0.1,0.5-0.2c0.1-0.1,0.2-0.3,0.2-0.6c0.1-0.4,0.1-0.7,0-0.9s-0.1-0.4-0.3-0.6c-0.1-0.2-0.3-0.4-0.7-0.7
					c-0.3-0.3-0.6-0.6-0.9-0.9c-0.7-0.7-0.9-1.5-0.8-2.4c0.2-1,0.5-1.8,1.1-2.3c0.6-0.6,1.3-0.9,2.2-1c1.1-0.1,1.8,0.1,2.2,0.7
					c0.4,0.5,0.5,1.4,0.3,2.6c-0.8,0-1.6,0.1-2.4,0.1c0-0.3,0.1-0.5,0.1-0.8c0-0.2,0-0.3-0.1-0.4c-0.1-0.1-0.2-0.1-0.3-0.1
					c-0.2,0-0.3,0.1-0.4,0.2c-0.1,0.1-0.2,0.2-0.2,0.4c-0.1,0.4,0.1,0.7,0.5,1.1c0.4,0.4,0.8,0.8,1.2,1.2c0.3,0.3,0.5,0.6,0.7,0.8
					c0.2,0.3,0.3,0.6,0.4,0.9c0.1,0.4,0.1,0.8,0,1.3c-0.2,1.1-0.5,2-1.1,2.6C909.2,756.6,908.5,756.9,907.5,757L907.5,757z
					 M911.1,756.7c0.6-3.9,1.3-7.7,1.9-11.6c1.2,0,2.4-0.1,3.6-0.1c-0.1,2.3-0.1,4.7-0.2,7.1c0.7-2.3,1.4-4.7,2.1-7
					c1.2,0,2.4,0.1,3.6,0.2c-0.6,3.9-1.3,7.7-1.9,11.6c-0.7,0-1.4-0.1-2.1-0.1c0.5-2.8,0.9-5.6,1.4-8.3c-0.9,2.8-1.8,5.5-2.7,8.3
					c-0.7,0-1.4,0-2.1,0c0-2.8-0.1-5.5-0.1-8.3c-0.5,2.8-0.9,5.6-1.4,8.3C912.5,756.6,911.8,756.7,911.1,756.7z M921.4,756.9
					c0.6-3.9,1.3-7.7,1.9-11.6c1.6,0.1,3.1,0.3,4.7,0.5c-0.1,0.7-0.2,1.5-0.4,2.2c-0.8-0.1-1.5-0.2-2.3-0.3
					c-0.1,0.7-0.2,1.5-0.4,2.2c0.7,0.1,1.5,0.2,2.2,0.3c-0.1,0.7-0.2,1.5-0.4,2.2c-0.7-0.1-1.5-0.2-2.2-0.3
					c-0.1,0.9-0.3,1.8-0.4,2.7c0.8,0.1,1.6,0.2,2.4,0.3c-0.1,0.7-0.2,1.5-0.4,2.2C924.6,757.2,923,757,921.4,756.9z"/>
				<g id="XMLID_214_">
					<path id="XMLID_218_" class="st4" d="M892.2,768.6c-6.5,4.9-13.3,7.1-17.7,7.9l0,0c-4.5,0.9-10.9,1.5-16.1-1.4
						c-1.7-1-4.9-2.8-5.9-5.9c-1.8,0.2-3.7,0.4-5.5,0.6c0.7,5.5,5.5,8.5,7.7,9.8c6.1,3.6,13.4,3,18.6,1.9c0.1,0,0.2,0,0.3-0.1
						c0.1,0,0.3-0.1,0.4-0.1c5.3-1.1,12.9-3.6,20.5-9.2c2.8-2.1,8.7-6.4,11.3-12.1c-1.8,0.2-3.6,0.3-5.5,0.6
						C898.2,764.1,894.3,767,892.2,768.6z"/>
					<path id="XMLID_215_" class="st4" d="M918.4,706.1c-3,0.7-6.2,1.6-9.4,2.6c-0.3,0.1-0.7,0.2-1,0.3c-5.5,1.7-6.3,2.1-8.1,2.9
						c-3.4,1.7-6.6,3.6-9.3,5.8c-0.8-0.5-1.4-1.1-1.8-1.7c-0.2-0.4-0.4-0.7-0.6-1.1c-0.2-0.5-0.4-0.9-0.8-1.3
						c-0.8-0.9-1.8-0.9-2.6-0.8l0,0c-0.8,0.2-1.9,0.6-3,1.9c-0.5,0.5-0.8,1.1-1.3,1.7c-0.3,0.5-0.7,1-1.1,1.6
						c-0.7,0.9-1.4,1.7-2.3,2.4c-2.2-1.2-4.9-2.1-8-2.6c-1.6-0.3-2.4-0.2-7.5-0.5c-0.3,0-0.6,0-1-0.1c-3-0.2-6-0.5-8.8-1
						c-1.1,1.5-2.2,2.9-3.3,4.4c2.1,1.7,3.5,3.7,4.1,6.1c0.6,2.3,0.3,4.2-0.7,9.9c0,0.1,0,0.2-0.1,0.4c0,0.1-1,5.8-2.6,15.1
						c1.7-0.1,3.4-0.3,5.1-0.5c1.6-9.1,2.6-14.8,2.6-15c0-0.1,0-0.2,0.1-0.4c1.1-6.1,1.6-8.5,0.7-11.7c-0.2-0.8-0.5-1.6-0.9-2.4
						c0.7,0.1,1.3,0.1,2,0.2c0.3,0,0.6,0,1,0.1c5.1,0.3,5.6,0.3,6.8,0.5c2.5,0.4,5.9,1.4,8.5,3.5c0,0,0.5,0.4,0.8,0.8
						c1.5,1.5,2.3,4.3,2.3,8.2c0,3.1-0.5,5.7-0.5,5.7v0.1c0,0.2,0,0.3-0.1,0.3c0,0,0,0,0,0.1l0,0c0,0.1,0,0.2,0,0.3
						c0.9-0.3,1.8-0.6,2.7-0.9c0,0,0,0,0.1,0c0.8,0,1.7-0.1,2.5-0.1c0-0.1,0-0.1,0.1-0.2c0-0.1,0-0.1,0-0.2c0,0,0-0.2,0.1-0.3v-0.1
						c0,0,0.3-2.6,1.4-5.9c1.3-4.1,3.1-7.5,5.2-9.7c0.5-0.5,1.1-1.1,1.1-1.1c3.4-3.3,7.4-5.6,10.2-6.9c1.3-0.6,1.9-0.9,7.3-2.6
						c0.3-0.1,0.7-0.2,1-0.3c0.7-0.2,1.4-0.4,2.1-0.6c-0.6,0.9-1.2,1.8-1.7,2.7c-2,3.5-2.3,6-3.2,12c0,0.1,0,0.2-0.1,0.4
						c0,0.2-0.9,5.9-2.3,14.9c1.7-0.2,3.4-0.4,5.1-0.5c1.4-9.2,2.3-15,2.3-15c0-0.1,0-0.2,0.1-0.4c0.8-5.6,1.1-7.5,2.5-10
						s3.5-4.7,6.1-6.6C919.7,708.9,919,707.5,918.4,706.1z M885.6,720.4c0,0.8,0,1.7,0.1,2.5c-0.8-0.2-1.5-0.5-2.3-0.7
						c-0.9,0.6-1.8,1.2-2.7,1.8c0.3-0.9,0.6-1.8,0.9-2.7c-0.6-0.5-1.2-1-1.7-1.5c1-0.3,1.9-0.6,2.9-1c0.6-0.9,1.1-1.8,1.7-2.7
						c0.3,0.7,0.6,1.4,0.9,2.1c0.9-0.1,1.8-0.1,2.8-0.2C887.2,718.9,886.4,719.7,885.6,720.4z"/>
				</g>
			</g>
		</g>
	</g>
	<g id="XMLID_17_">
		<path id="XMLID_25_" class="st13" d="M805.7,674.2c-1.8-0.3-3.5,0.9-3.8,2.7l-35.1,216.3c-0.1,0.4,0,0.9,0,1.3l6.7-1.5l34.9-215
			C808.7,676.2,807.5,674.5,805.7,674.2z"/>
	</g>
</g>
<path id="XMLID_7_" class="st14" d="M0,909.8v90.2h647.7l1.3-17.3C399.5,817.9,116.8,874.9,0,909.8z"/>
<g id="XMLID_6_">
	<path id="XMLID_10_" class="st15" d="M1000,1000V874.1c-59.9-24.6-161.5-32.2-269,2.6c-139,45-207.9,101.5-356.2,123.3L1000,1000
		L1000,1000z"/>
</g>
<text id="XMLID_84_" transform="matrix(0.9772 -0.2121 0.2121 0.9772 117.3179 242.2009)" class="st4 st16 st17">Join the Green</text>
<text id="XMLID_83_" transform="matrix(0.9772 -0.2121 0.2121 0.9772 98.2897 320.0044)" class="st4 st16 st17">Polder Socialist</text>
<text id="XMLID_82_" transform="matrix(0.9772 -0.2121 0.2121 0.9772 213.1373 368.7494)" class="st4 st16 st17">Revolution</text>
<text id="XMLID_81_" transform="matrix(0.9772 -0.2121 0.2121 0.9772 406.149 830.1053)" class="st4 st16 st17">Stop</text>
<text id="XMLID_80_" transform="matrix(0.9772 -0.2121 0.2121 0.9772 250.3126 937.6028)" class="st4 st16 st17">Desertifaction!</text>
<g id="XMLID_46_" class="st3">
	<path id="XMLID_50_" class="st4" d="M768.1,236.3h28.6c15.1,0,27.3-12.2,27.3-27.3v-12.2c0-15.1-12.2-27.3-27.3-27.3h-28.6
		c-15.1,0-27.3,12.2-27.3,27.3V209C740.8,224.1,753,236.3,768.1,236.3z"/>
	<g id="XMLID_48_">
		<path id="XMLID_49_" class="st4" d="M999.2,218.4H737.9c-15.1,0-27.3,12.2-27.3,27.3v12.2c0,15.1,12.2,27.3,27.3,27.3h261.4
			c0.3,0,0.5,0,0.8,0v-66.7C999.7,218.4,999.5,218.4,999.2,218.4z"/>
	</g>
	<path id="XMLID_47_" class="st4" d="M860.7,328.6h80.2c15.1,0,27.3-12.2,27.3-27.3v-12.2c0-15.1-12.2-27.3-27.3-27.3h-80.2
		c-15.1,0-27.3,12.2-27.3,27.3v12.2C833.4,316.4,845.6,328.6,860.7,328.6z"/>
</g>
<g id="XMLID_41_" class="st3">
	<path id="XMLID_45_" class="st4" d="M230.9,102h28.6c15.1,0,27.3-12.2,27.3-27.3V62.5c0-15.1-12.2-27.3-27.3-27.3h-28.6
		c-15.1,0-27.3,12.2-27.3,27.3v12.2C203.6,89.8,215.8,102,230.9,102z"/>
	<path id="XMLID_44_" class="st4" d="M46.4,150.7h261.4c15.1,0,27.3-12.2,27.3-27.3v-12.2c0-15.1-12.2-27.3-27.3-27.3H46.4
		c-15.1,0-27.3,12.2-27.3,27.3v12.2C19.1,138.5,31.3,150.7,46.4,150.7z"/>
	<g id="XMLID_42_">
		<path id="XMLID_43_" class="st4" d="M201.3,127.4H9.8c-3.4,0-6.7,0.6-9.8,1.8v63.1c3,1.2,6.3,1.8,9.8,1.8h191.5
			c15.1,0,27.3-12.2,27.3-27.3v-12.2C228.6,139.6,216.4,127.4,201.3,127.4z"/>
	</g>
</g>
<g id="XMLID_196_">
	<g id="XMLID_206_" class="st18">
		<path id="XMLID_231_" class="st19" d="M837.6,948.2c2.8-3.2,5.4-6.6,8.1-10c0.6-0.8,0.9-1.2,1.5-2c0.6-0.9,1.1-1.6,1.3-2.1l0-0.1
			c0-0.1-0.1-0.2-0.2-0.2c-3,0.6-6.8,4.5-10.2,6.6c-3.1,1.8-6.1,3.4-9.4,4.8C831.5,946.6,834.5,947.6,837.6,948.2 M840.1,948.8
			c0.6,0.1,0.9,0.2,1.6,0.3c0.8,0.2,1.1,0.5,1.1,1c0,0.3-0.3,0.4-0.8,0.3c-0.4-0.1-0.7-0.1-1.1-0.3c-0.6-0.1-1-0.2-1.6-0.3
			c-1.4,1.7-2.1,2.6-3.5,4.2c-2.4,2.7-3.7,3.9-3.9,3.8c-0.2-0.1-0.4-0.4-0.6-0.8c-0.2-0.4-0.3-0.8-0.3-1c0.6-2,3.9-4.6,5.9-6.8
			c-0.5-0.1-0.8-0.2-1.3-0.4c-2.9-0.8-5.6-1.8-8.3-2.9c-2.3,1.1-3.5,1.6-5.8,2.3c-0.9,0.3-1.3,0.5-2.2,0.7c-1.2,0.3-2,0.3-2.2,0.1
			c-0.3-0.3-0.5-0.6-0.5-1c0-0.5,1.7-0.8,5-1.8c1.6-0.5,2.4-0.7,3.9-1.4c-2.8-1.4-5.3-3.3-8.1-4.5v0c0,0.2,0.8,1,2.5,2.2
			c0.9,0.6,1.4,0.9,2.3,1.5c0.3,0.2,0.5,0.4,0.5,0.5c0,0.4-1.2-0.2-3.7-2c-2.1-1.6-3.2-2.8-3.2-3.4c0-0.8,0.6-0.8,1.9-0.1
			c0.3,0.2,1.2,0.8,2.6,1.7c2.7,1.7,4,2.4,6.7,3.5c4-1.7,7.9-3.6,11.6-5.7c3.5-2,7.8-6,11.5-6.5c0.5-0.1,0.9,0.4,0.9,1.4
			c0,0.8-0.8,2.3-2.4,4.6C845.5,941.7,842.8,945.3,840.1,948.8"/>
		<path id="XMLID_227_" class="st19" d="M869.8,935.4c-0.1-0.1-4.4,4.5-6,7.1c-1.8,2.8-2.7,4.8-2.7,5.9c0,0.4,0.2,0.6,0.5,0.5
			c0.8-0.1,2.1-1.6,4-4.4C867.4,941.7,869.8,935.4,869.8,935.4 M846.5,957.6c-0.1-0.4-3.3-1.3-5-1.6c-2.5-0.4-3.7,0.1-3.7,1.8
			c0,1.4,0.9,2.3,2.7,2.7C842.4,960.8,846.5,957.9,846.5,957.6 M849.7,957c4,1.7,6.7,2.2,8.2,2c0.2,0,0.4-0.1,0.7-0.2
			c0.3-0.1,0.5-0.2,0.6-0.2c0.1,0,0.2,0,0.2,0.2c0,0.4-0.3,0.8-1,1.3c-0.6,0.4-1.1,0.6-1.5,0.6c-1.5,0.2-6.6-2.6-8.3-2.2
			c-1.4,0.3-4.9,3.6-7.4,3.1c-1-0.2-1.9-0.6-2.6-1.1c-0.9-0.7-1.3-1.7-1.3-2.7c0-1.3,0.7-2.2,2.1-2.8c1.2-0.5,2.4-0.6,3.6-0.5
			c1.5,0.2,3.2,0.8,5,1.6c3.1-3.7,6-7.5,8.9-11.3c1.8-2.4,3.5-4.8,5.4-7.1c2.6-3.2,4.9-5.1,6.5-5.6c1.4-0.4,2.4,1.4,2.4,1.4
			c0.1,0,1-0.7,1.1-0.7c0.2,0,0.2,0,0.2,0.3c0,0.2-0.2,0.4-0.5,0.7l-0.8,0.6c-0.3,3.4-2,6.7-3.8,9.6c-2.4,3.8-4.3,5.9-5.6,6.1
			c-1,0.2-1.4-0.2-1.4-1.2c0-1.4,0.9-3.6,2.7-6.5c1.9-3.1,5.9-6,6.9-8.1c0.1-0.1,0-0.4,0-0.5c0-0.8-0.3-1.1-0.9-0.9
			c-1.1,0.3-2.9,2.2-5.4,5.4c-0.9,1.2-2.5,3.4-4.7,6.5c-1.8,2.6-3.7,5.1-5.6,7.6C851.9,954.3,851.2,955.2,849.7,957"/>
		<path id="XMLID_226_" class="st19" d="M885.6,927.7c-0.1,0.1,0.1,0.5,0.1,0.6c0,0.2-0.6,1.3-1.8,3.1c-0.9,1.3-1.3,2-2.1,3.3
			c-3.4,5.5-6.8,11.1-10.1,16.7c-1.5,2.5-2.6,4.5-3.3,5.9c-0.5,1-1,1.6-1.3,1.7c-0.6,0.2-1-0.2-0.9-0.7c1.1-7.9,10.2-17.8,15-25.4
			c0.7-1.1,2.9-4.3,2.9-4.3c0,0-5.5,4.1-8,6.3c-0.3,0.2-0.5,0.4-0.6,0.4c-0.4,0.1-0.6-0.1-0.6-0.8c0-0.8,1.3-2.1,3.9-4.1
			c1.8-1.4,3.5-2.6,5-3.6c1.9-1.2,3.7-2.2,5.4-2.8c1.9-0.8,3.3-1,4.2-0.5c1,0.5,1.5,1.8,1.5,4c0,2-1.2,4.5-3.5,7.4
			c-2.8,3.6-10.4,7.1-10.8,8c-0.1,0.2,0.7,2.2,1.3,4.8c0.5,2.3,0.9,3.6,1.1,3.8c0.2,0.2,0.7,0.2,1.3-0.1c0.1-0.1,0.3,0,0.3,0
			c0.1,0.2-0.3,0.6-0.8,1.1c-0.5,0.4-0.8,0.6-1.2,0.7c-0.4,0.2-0.8,0.2-1.2,0c-0.4-0.2-0.7-0.7-0.9-1.6l-0.7-3.5
			c-0.3-1.3-0.6-2.5-0.9-3.4c-0.1-0.3-0.3-0.9-0.7-1.3c-0.3-0.3-0.7-0.6-0.7-0.7c0-0.3,0.5-0.7,1.5-1.1c0.4-0.1,0.8,0.1,0.9,0.2
			c0.8,0.2,3.8-2,6.3-4.1c2.5-2.1,4.3-4.1,5.5-6c1.4-2.2,2.2-4,2.2-5.1c0-1.9-1.4-2.2-4.3-1.1C888.6,926,886,927,885.6,927.7"/>
		<path id="XMLID_223_" class="st19" d="M920.5,913.2c0,0,0.8-0.1,1.2-0.2c0.6-0.2,1.3-0.5,2.1-0.9c1-0.6,1.5-1,1.5-1.5
			c0-0.2-0.2-0.3-0.6-0.2C923.2,910.8,920.5,913.2,920.5,913.2 M910.6,929.2c0,0,1.5-0.6,2-0.8c0.6-0.2,1-0.2,1,0.2
			c0,0.3-2.3,0.8-3.7,2.1c-2,1.9-3.8,7.3-5.9,10.7c-1.9,3.1-4.1,7.1-7.5,8.7c-0.7,0.3-1.3,0.3-1.8,0.1c-0.5-0.2-0.8-0.7-0.8-1.5
			c0-1.5,0.6-3.3,1.7-5.5c1.1-2.2,1.9-3.4,2.4-3.6c0.2-0.1,0.2,0,0.2,0.2c0,0.1-0.3,0.6-0.9,1.7c-0.7,1.3-1.3,2.5-1.7,3.4
			c-0.6,1.5-0.9,2.6-0.9,3.5c0,1,0.5,1.4,1.4,1c0.7-0.3,1.6-1.2,2.6-2.7c1.2-1.6,2.7-4.1,4.5-7.4c1.6-3,2.4-4.5,4.1-7.5
			c-1.5,0.7-3.3,1.6-5.5,2.8c-2.1,1.2-3.3,1.9-3.5,1.9c-0.4,0.2-0.6,0.1-0.6-0.2c0-0.2,0.1-0.5,0.4-0.8c0.3-0.3,1.8-1.2,4.7-2.7
			c2.1-1.1,3.2-1.6,5.3-2.6c2.7-5,9.1-14.7,9.1-14.7c-0.1-0.1-3.2,0.7-4.8,1.2c-2.5,0.9-4.9,2.2-7.2,3.9c-2.4,1.8-4.7,3.9-6.4,6.4
			l-1.3,2.4c-0.6,1.2-1.1,1.8-1.3,1.9c-0.4,0.2-0.6,0-0.6-0.4c0-0.6,1.1-3,3.2-7c2.1-4,3.4-6.1,3.8-6.3c0.4-0.2,0.6,0,0.6,0.4
			c0,0.2-0.2,0.7-0.6,1.3c-1.2,2-3,5.5-3,5.5c0.1,0,7.7-8,13.1-10c1.7-0.6,4.7-0.7,6.1-1.5c1.6-0.8,3.6-3.2,5.5-3.6
			c1-0.3,1.6-0.1,1.6,0.5c0,1-1,2-3,3.1c-1.3,0.7-3.2,1.2-4.1,1.7C915.9,917.3,910.6,929.2,910.6,929.2"/>
		<path id="XMLID_219_" class="st19" d="M922.4,928.7c0-0.5-0.2-0.7-0.6-0.5c-0.7,0.2-2.1,1.8-4.2,4.7c-2.1,3-3.1,5-3.1,5.9
			c0,0.3,0.1,0.4,0.3,0.4c0.6-0.2,2.1-1.8,4.2-4.7C921.3,931.5,922.4,929.6,922.4,928.7 M916,940.7c-0.1-0.1-5.3,4.4-7.4,7.1
			c-2.4,3-3.6,5.4-3.6,6.7c0,0.6,0.2,0.7,0.6,0.6c1-0.4,2.8-2.6,5.4-6.5C912.8,946,916,940.7,916,940.7 M913.5,936.5
			c0,0-2.7,3.3-3.1,3.8c-1.5,1.7-2.7,2.8-3.5,3.1c-0.2,0.1-0.2,0-0.2-0.2c0-0.2,0.1-0.4,0.4-0.6c1.2-0.8,2.7-2.4,4.5-4.6
			c1.9-2.5,2.9-3.7,4.8-6.1c2.3-2.7,4.1-4.2,5.2-4.6c1-0.3,1.4,1.5,1.4,1.5c0,0,0.9-1.3,1.2-1.4c0.3-0.1,0.6,0.2,0.5,0.5
			c-0.7,3.1-5.8,10.5-5.8,10.5c0,0,0.2-0.1,0.4-0.2c0.2-0.1,0.3-0.1,0.4-0.1c0.1,0,0.2,0,0.2,0.3c0,0.2-0.2,0.4-0.7,0.6l-0.9,0.3
			c-3.1,5.3-6.8,13.8-12.3,16.4c-1,0.5-1.6,0.1-1.6-0.9c0-1.6,1.1-4,3.2-7.1c2.3-3.3,6.7-6,9-8.2c1-1,2.4-4.2,2.4-4.2
			c0,0-1.9,2.5-2.2,2.9c-1,1.2-1.9,1.9-2.6,2.2c-0.8,0.3-1.3-0.1-1.3-1.3C912.9,938.4,913.5,936.5,913.5,936.5"/>
		<path id="XMLID_213_" class="st19" d="M934.5,925.6c-0.7,0.1-2.1,1.4-4.2,4.1c-2.1,2.7-3.2,4.5-3.2,5.3c0,0.4,0.1,0.5,0.4,0.4
			c0.7-0.1,2.1-1.6,4.2-4.2c2.1-2.6,3.2-4.3,3.2-5C935,925.7,934.8,925.5,934.5,925.6 M925.9,933c-0.1,0-3.9,4.9-6.3,5.9
			c-0.1,0.1-0.2,0-0.2-0.2c0-0.2,0.1-0.4,0.4-0.6c1.1-0.5,2.6-1.9,4.5-4.1c0.9-1,1.3-1.5,2.2-2.5c1.4-1.6,2.1-2.4,3.6-4
			c1.6-1.6,3-2.5,4.2-2.6c0.9-0.1,1.4,1.3,1.4,1.3c0.1,0,0.8-0.8,0.9-0.8c0.4,0,0.6,0.1,0.6,0.5c0,0.5-0.9,1.9-2.6,4.5
			c-1.8,2.6-2.6,4.1-2.6,4.5c0,0.3,0.2,0.4,0.6,0.3c0.4,0,0.6,0,0.6,0.3c0,0.3-0.4,0.5-1.2,0.6c-0.8,0.1-1.2-0.2-1.2-1
			c0-0.6,0.3-1.6,0.9-2.8c-0.9,1-1.3,1.5-2.1,2.5c-1,1.1-1.9,1.7-2.5,1.9c-1,0.2-1.5-0.2-1.5-1.4C925.5,934.5,925.9,933,925.9,933"
			/>
		<path id="XMLID_212_" class="st19" d="M944.1,926.2c-2.2,2-3.3,3.1-5.5,5.3c-2.8,2.6-4.7,4.1-5.8,4.2c-0.1,0-0.2-0.1-0.2-0.2
			c0-0.2,0.1-0.4,0.3-0.5c0.8-0.4,1.5-0.7,1.9-1.1c0.7-0.5,2.2-2,4.5-4.2c1-1,2.7-2.5,4.5-4.5c0.7-0.8,1.3-1.3,1.6-1.2
			c0.6,0,1,0.3,1,0.8c0,0.6-1.9,3.6-1.9,3.6c0,0,4.2-3.6,5.2-3.5c0.3,0,0.6,0.2,0.9,0.5c0.3,0.3,0.4,0.6,0.4,0.9
			c0,0.5-0.9,2.2-0.9,2.2c0,0,4.1-3.1,5.5-2.8c0.8,0.2,1.2,0.7,1.2,1.4c0,0.9-0.9,2.2-2.8,3.9c-1.9,1.8-2.8,3-2.8,3.4
			c0,0.3,0.2,0.5,0.6,0.6c0.4,0.1,0.6,0.2,0.6,0.4c0,0.3-0.3,0.3-1,0.2c-0.9-0.2-1.3-0.7-1.3-1.6c0-1,0.8-2.5,2.5-4.3
			c1.6-1.8,2.5-2.8,2.5-3c0-0.2-0.1-0.3-0.3-0.3c-0.7-0.2-2.2,0.7-4.5,2.8c-1.9,1.8-3.3,3.3-4.2,4.5c-0.6,0.7-1,1.1-1.2,1.1
			c-0.4,0-0.7-0.3-0.7-0.7c0-0.5,0.9-1.9,2.7-4c1.8-2.2,2.7-3.4,2.7-4c0-0.2-0.1-0.4-0.3-0.4c-0.6-0.1-2,0.9-4.1,3.1
			c-1.8,1.9-3.1,3.4-3.8,4.6c-0.6,0.9-1.1,1.3-1.5,1.4c-0.4,0-0.6-0.2-0.6-0.6c0-0.5,0.8-1.9,2.4-4.2
			C942.4,928.5,942.9,927.7,944.1,926.2"/>
		<path id="XMLID_209_" class="st19" d="M960.6,934c0.1,0.1,2.2-0.5,3.3-1c1.5-0.6,2.3-1.2,2.3-2c0-0.3-0.1-0.5-0.4-0.7
			c-0.7-0.4-1.8-0.1-3,0.9C961.7,932.2,960.6,934,960.6,934 M958.3,934.3c-0.1-0.1-1.7,0.2-3.2,0.8c-1.4,0.6-2.5,0.8-3.2,0.7
			c-0.1,0-0.2-0.1-0.2-0.3c0-0.2,0.1-0.4,0.4-0.4c0.7,0,1.7-0.3,3-0.8c1.4-0.6,3.1-0.5,3.4-0.7c0.5-0.3,1.6-2.4,3.3-3.3
			c1.7-1,3.2-1.1,4.5-0.4c0.9,0.5,1.4,1.2,1.4,2.1c0,1.2-1,1.8-2.9,2.2c-1.4,0.3-3.8,0.1-4.4,0.5c-0.2,0.1-0.2,0.8-0.2,1.2
			c0,0.7,0.2,1.2,0.6,1.6c0.2,0.2,0.6,0.4,1.2,0.7c0.4,0.2,0.6,0.4,0.6,0.6c0,0.3-0.7,0.2-2.1-0.4c-1.5-0.6-2.2-1.5-2.2-3
			C958.2,935,958.4,934.3,958.3,934.3"/>
		<path id="XMLID_208_" class="st19" d="M972,935.8c0.1-0.2-0.1-0.8-0.1-0.8c0-0.4,0.4-0.7,1.1-0.9c0.7-0.2,1.2-0.2,1.5,0
			c0.3,0.2,0.4,0.4,0.4,0.7c0,0.2-0.4,0.8-0.4,0.8c0,0.4,1.9,2.2,1.9,3.3c0,0.9-0.8,1.7-2.5,2.4c-1.7,0.8-2.5,1.4-2.5,1.6
			c0,0.2,0.1,0.4,0.3,0.6l0.6,0.4c0.2,0.1,0.2,0.3,0.2,0.5c0,0.3-0.3,0.2-1-0.3c-0.8-0.6-1.3-1.3-1.3-2.1c0-0.8,0.4-1.6,1.3-2.3
			c0.5-0.4,1.3-0.9,2.3-1.3c0.8-0.3,1.3-0.5,1.3-0.6c0-0.2-0.1-0.4-0.3-0.5c-0.2-0.1-0.5-0.3-1-0.5c-0.5-0.2-0.8-0.3-0.9-0.3
			c-3.2,1-7.6,3.4-10.8,2.4c-0.1,0-0.2-0.2-0.2-0.4c0-0.2,0.2-0.3,0.5-0.2c0.4,0.1,0.9,0.1,1.5,0.1c0.9,0,2.3-0.5,4.2-1.1
			C969.8,936.8,971.8,936.2,972,935.8"/>
		<path id="XMLID_207_" class="st20" d="M850.3,976.9c-12.5,0-24.1-4.3-35.3-13.1c-0.3-0.2-0.4-0.7-0.1-1c0.2-0.3,0.7-0.4,1-0.1
			C829,973,842.7,977,857.6,975c12.3-1.6,24-6.5,35.3-11.2l1-0.4c14.1-5.9,26.8-10.9,39.7-12.5c14.8-1.9,27.8,1.1,39.8,9.2
			c0.3,0.2,0.4,0.7,0.2,1c-0.2,0.3-0.7,0.4-1,0.2c-26.6-18-54-6.6-78.2,3.5l-1,0.4c-11.4,4.7-23.2,9.7-35.7,11.3
			C855.3,976.8,852.7,976.9,850.3,976.9"/>
	</g>
	<polygon id="XMLID_205_" class="st21" points="951,950.9 962.7,968.8 970.1,943.1 	"/>
	<polygon id="XMLID_204_" class="st21" points="921.6,956.8 941.1,948 929.2,931.2 	"/>
	<path id="XMLID_203_" class="st4" d="M935.4,986.1c0.8,0.2,1.6,0.4,2.4,0.5c10.7,1.9,21.3-4.6,24.4-15.2c0.3-0.9,0.4-1.7,0.6-2.6
		c-4.6,1.1-12.5,3.8-16.8,9.9c-6.3,8.9-8.8,1.5-8.8,1.5s-6.1,4.9-6.6-6c-0.4-7.4-5.6-13.9-8.9-17.4c-0.3,0.8-0.7,1.6-0.9,2.5
		c-3.1,10.6,2.4,21.7,12.4,25.9C933.8,985.6,934.6,985.8,935.4,986.1L935.4,986.1z"/>
	<path id="XMLID_202_" class="st22" d="M930.5,974.2c0.5,10.9,6.6,6,6.6,6s2.5,7.4,8.8-1.5c4.3-6,12.2-8.7,16.8-9.9
		c1.7-10.6-4.7-21.1-15.2-24.1c-10.6-3.1-21.6,2.3-25.8,12.2C924.9,960.3,930.1,966.8,930.5,974.2"/>
	<path id="XMLID_201_" class="st23" d="M940.9,980.4c-0.3,1-2.1,1.3-4.1,0.8c-1.9-0.6-3.3-1.8-3-2.8c0.3-1,2.1-1.3,4.1-0.8
		C939.8,978.1,941.2,979.4,940.9,980.4"/>
	<path id="XMLID_200_" class="st23" d="M955.2,970.6c-0.9,2.9-3.6,4.7-6.1,4c-2.5-0.7-3.9-3.7-3-6.6c0.9-2.9,3.6-4.7,6.1-4
		C954.7,964.7,956.1,967.7,955.2,970.6"/>
	<path id="XMLID_199_" class="st23" d="M936.1,965.1c-0.9,2.9-3.6,4.7-6.1,4c-2.5-0.7-3.9-3.7-3-6.6c0.9-2.9,3.6-4.7,6.1-4
		C935.6,959.2,937,962.1,936.1,965.1"/>
	<path id="XMLID_198_" class="st4" d="M933.5,962c-0.3,1.1-1.5,1.8-2.7,1.5c-1.1-0.3-1.8-1.5-1.5-2.7c0.3-1.1,1.5-1.8,2.7-1.5
		C933.2,959.7,933.8,960.9,933.5,962"/>
	<path id="XMLID_197_" class="st4" d="M952.6,967.6c-0.3,1.1-1.5,1.8-2.7,1.5c-1.1-0.3-1.8-1.5-1.5-2.7c0.3-1.2,1.5-1.8,2.7-1.5
		C952.3,965.3,952.9,966.5,952.6,967.6"/>
</g>
</svg>
