<?xml version="1.0" encoding="utf-8"?>
<!-- Generator: Adobe Illustrator 21.0.0, SVG Export Plug-In . SVG Version: 6.00 Build 0)  -->
<svg version="1.1" id="Layer_1" xmlns="http://www.w3.org/2000/svg" xmlns:xlink="http://www.w3.org/1999/xlink" x="0px" y="0px"
	 viewBox="0 0 2458.6 1419.6" style="enable-background:new 0 0 2458.6 1419.6;" xml:space="preserve">
<style type="text/css">
	.st0{fill:url(#XMLID_250_);}
	.st1{fill:#C4C7CC;}
	.st2{fill:#A29288;}
	.st3{fill:#6C473F;}
	.st4{fill:#482E21;}
	.st5{fill:#C6C2B7;}
	.st6{fill:#332D2D;}
	.st7{fill:#928981;}
	.st8{fill:#15181C;}
	.st9{fill:#191919;}
	.st10{fill:#FFFFFF;}
	.st11{font-family:'Raleway-SemiBold';}
	.st12{font-size:46.7008px;}
	.st13{font-size:30px;}
	.st14{fill:none;stroke:#FFFFFF;stroke-width:2;stroke-miterlimit:10;}
	.st15{font-size:20px;}
	.st16{font-size:17px;}
	.st17{font-family:'Raleway-Regular';}
	.st18{fill:#FFFFFF;stroke:#000000;stroke-miterlimit:10;}
	.st19{fill-rule:evenodd;clip-rule:evenodd;fill:#FFFFFF;}
	.st20{fill:#E8A96C;}
	.st21{fill:#E88A2E;}
	.st22{fill:#010101;}
	.st23{font-size:71.9402px;}
</style>
<g id="XMLID_247_">
	<linearGradient id="XMLID_250_" gradientUnits="userSpaceOnUse" x1="0" y1="709.6907" x2="2438.7351" y2="709.6907">
		<stop  offset="0" style="stop-color:#6ABD45"/>
		<stop  offset="1" style="stop-color:#C1272D"/>
	</linearGradient>
	<rect id="XMLID_34_" class="st0" width="2438.7" height="1419.4"/>
	<path id="XMLID_214_" class="st1" d="M1923.4,327.5c0,0,37.8-37.4,61.8-39.3c24-1.9,42.6-5.2,42.6-5.2l26.9-15.8l4.2-16.7h7
		c0,0,2.8-8.8,1.8-27c0,0-23.7-20.5-28-32s-13.3-24.3-11.5-41.9s2.3-47.6,12.5-52.9c10.2-5.3,16-14.8,16-14.8s14.6-15,32.9-15
		c18.3,0,49.3-2.8,71.8,23.5c0,0,19.8,13,22.5,36.8c0,0,16.5,55.1,21,57.8c0,0-23.5,40.7-49.8,45v14.9h9.5l15.8,31.6
		c0,0,79.8,14.3,109.8,58.1l-23.3,273c0,0-49.7,67.6-71.5,60.2l-238.5,39.3L1923.4,327.5z"/>
	<polygon id="XMLID_227_" class="st2" points="2137.9,99.2 2161.2,146.2 2156.5,202.9 2153.9,207.1 2142.1,240.2 2083.5,238.4 
		2065.7,188.4 2068.7,105.5 	"/>
	<path id="XMLID_187_" class="st3" d="M2149.8,160.3h-34.3c0,0,0-10.4,4.8-11l24.5-1.4C2144.9,148,2151.2,152.1,2149.8,160.3z"/>
	<path id="XMLID_179_" class="st3" d="M2074.4,116.7c0,0-5.5,30.7-4.1,33.5l30.1,2.7c0,0,2.9,26.6,1.6,30.7c0,0,6.7,5.5,12.1,2.2
		c5.5-3.3,7.6,2.7,7.6,2.7s-6.7-0.8-10.2,1.4c-3.5,2.2-10.6-2.7-13.9-2.7c-3.3,0-1.8-8.2-1.8-8.2l3.3-17.8h-4.3l-26-1.4
		c0,0-3.1,49.5,16.6,66.6c19.8,17,40.3,16.4,54,2c13.7-14.5,14.3-21.1,14.3-21.1s-2.9,39-9.6,41.7c-6.7,2.7-46.2,9-69.7-1.4
		c0,0-2.7-33.3-5.9-36.2c-3.1-2.9-12.2-37.6-12.2-39.7s1.4-44.6,1.4-44.6L2074.4,116.7z"/>
	<path id="XMLID_166_" class="st2" d="M1716.1,457.6h-12.8c0,0-7.1,22.6-18.8,34.1c-11.8,11.4,0,19.8,0,19.8s-8.1,13.4,4.7,20.2
		c0,0,1.8,13.8,8.5,16.1s9.3,13.1,9.3,13.1s24.4,8.1,41.4-1.8l17.6-7l7-74.5L1716.1,457.6z"/>
	<path id="XMLID_170_" class="st3" d="M1722.2,485.3l-5.7,3.4c0,0-0.7,17.5-5,19.8h-14.5c0,0,20.6,0.4,20.6,12
		c0,11.5-22.2,7.2-22.2,7.2s21.2,3.4,22.2,6.9s9.7,13.2-12.8,11.9c0,0,24.5,5.7,17.5,15.1l31.6-2.4l35.3-42.3l-30.6-35.3
		L1722.2,485.3z"/>
	<path id="XMLID_163_" class="st4" d="M1928.8,331.7c0,0,20.2-23.3,28-24.3c0,0,17.3-7,38.2-4.7c0,0,15,9,28.9,28.9
		c0,0-31.5,56.7-38.8,65.1s-38.5,15.4-38.5,15.4s0.5,16,4.7,20.6c0,0,22.8,3.7,27.5,10.6c0,0-2.2,23.6,6.4,36.2
		c8.6,12.6,12.2,66.1,12.2,66.1s3.7,26.6,9.3,28.9c0,0-5.6,12-2.3,17.6c0,0-22.6,15.6-22.3,61.1l-3.3,1.3c0,0-6.6,8.3-5.6,50.2
		l-2.3,133.9h-145.5c0,0-12.6-35.6-12.6-51.5c0-16-22.3-40.2-19.9-60.1c0,0-11.3-38.2-8-53.5c3.3-15.3-36.2-114.6-36.2-114.6
		s11-1.6,3.7-14.8c0,0,16.3-3.8,4.7-15.5c0,0,17.6-17.3-7-20.9c0,0,18.3-17.6-11.3-16.3l-19.3-2.3c0,0-10.3-35.9-8-54.5
		c0,0-14.3-5.3-22.3-21.6c0,0-52.5,0.7-67.5-41.5c0,0-13-22.6-18.6-23.6c0,0,12-23.3,19.9-23.3c8,0,31.6-4.6,41.9,0
		c0,0,24.6-15,55.8,8.3c0,0,27.2-57.2,45.5-63.1c18.3-6,37.6-4,74.5,3.3c0,0,61.1-0.3,67.1,2.3S1924.4,326.1,1928.8,331.7z"/>
	<path id="XMLID_109_" class="st5" d="M1881,278.4l22.6,13.2l4.4,23.2l17.1,27c0,0,18.2,11.6,21.5,25.4c0,0-19.3,7.7-9.9,50.2
		l21,55.7c0,0,9.9,19.8,25.4,29.2c15.4,9.4-5.5,36.4-3.9,44.1c1.7,7.7,1.7,30.9-21.5,29.2s-102,19.3-105.9-15.4c0,0,7.7-9.9,0-30.9
		c-7.7-21,13.2-38.6,13.2-38.6s-29.2-73.3-42.5-92.6s-30.3-28.7-30.3-28.7s20.4,30.9,18.7,44.1c0,0-17.1-32.5-24.8-36.4
		c-7.7-3.9-21-3.9-21-3.9s-4.4-12.4-21.5-17.8c-17.1-5.4,13.2-29.1,13.2-29.1s-9.9-22.6,15.4-53.5c0,0,24.3-5.5,31.4-3.9
		C1811,270.6,1866.1,280,1881,278.4z"/>
	<path id="XMLID_111_" class="st4" d="M1971.5,506.5c0,0-2.3,13.6-7.1,19.5c-4.8,5.9,17.8,17,13.9-2.8
		C1974.3,503.4,1971.5,506.5,1971.5,506.5z"/>
	<path id="XMLID_114_" class="st4" d="M1888.1,523.2l-2.8,4c0,0-2.8-6,4-20.8c0,0,14.1,18.8,24.9,22.8c10.7,4,0,13.9,0,13.9
		S1899.7,551.8,1888.1,523.2z"/>
	<path id="XMLID_116_" class="st5" d="M1809.2,422l20.6,35.6c0,0-23.5-17.5-34.5-14.7c-11,2.8,7.6-9,7.6-9S1791.7,429,1809.2,422z"
		/>
	<path id="XMLID_118_" class="st5" d="M1778.4,389.7c0,0-17.5-5.9-24.6,7.1l8.8-4.2l-0.8,7l5.7-6.8
		C1767.3,392.8,1776.4,394.5,1778.4,389.7z"/>
	<path id="XMLID_119_" class="st5" d="M1771.6,396.8c0,0,0.8,3.1,4.8,0c0,0,2.3,5.7-4.8,6.8C1771.6,403.6,1766.8,398.8,1771.6,396.8
		z"/>
	<path id="XMLID_122_" class="st5" d="M1799.3,413.8c0,0-26.6,5.7-37.6-9c0,0,9.9,21.8,22.6,19.8
		C1797,422.5,1799.3,413.8,1799.3,413.8z"/>
	<path id="XMLID_124_" class="st5" d="M1803.3,552l17.8,2.8c0,0,35.9,26.9,42.6,28.8c0,0-40.9-18.7-55.6-17.8
		C1808.1,565.9,1801.6,558,1803.3,552z"/>
	<path id="XMLID_126_" class="st5" d="M1960.5,580.3c0,0-2,15-29.7,14.1c-27.7-0.8-36.5,13-64.2-10.7
		C1866.6,583.7,1920.1,593.6,1960.5,580.3z"/>
	<path id="XMLID_127_" class="st5" d="M1696.4,326.1c0,0,31.4,11.9,20.6,31.7l-20.6-23.8l-21.8,1.1L1696.4,326.1z"/>
	<path id="XMLID_130_" class="st5" d="M1615.5,334.6c0,0-4,10.7-7.9,12.7c0,0,9,3.7,21.8,28.6c12.7,24.9,33.4,31.7,56.3,31.7
		c0,0,10.2,0.8,15,11.9c4.8,11,10.7,11,10.7,11l-3.7-11.9c0,0,9-27.7,5.9-37.6c-3.1-9.9-46.7-15.8-46.7-15.8s-5.1-28.6-31.7-19.8
		S1615.5,334.6,1615.5,334.6z"/>
	<path id="XMLID_132_" class="st5" d="M1948.9,393.4c0,0-3.1,7.6-9.7,9.5l1.2,5.5C1940.4,408.4,1952.5,401.8,1948.9,393.4z"/>
	<path id="XMLID_134_" class="st5" d="M1948.2,371.6l1.4,6.6c0,0-11.4,5.5-12.1,7.3C1937.5,385.4,1944.6,373.5,1948.2,371.6z"/>
	<path id="XMLID_136_" class="st5" d="M1943.5,388.4c0,0,2.9,2.1,0.9,5C1942.3,396.3,1938.9,389.6,1943.5,388.4z"/>
	<path id="XMLID_137_" class="st5" d="M1939.2,349.5l-8.5-10.9c0,0,14.1-20.9,18.8-24.3v3.1c0,0,14.5-14.7,22.3-11.6
		c7.8,3.1,22.4-0.4,22.4-0.4l6.6,4.7l-9.7,4.8c0,0-7.9-7.8-15.7-4.8c-7.8,2.9-21.8,14.3-21.8,16.2S1940.9,338.1,1939.2,349.5z"/>
	<path id="XMLID_139_" class="st5" d="M1953,380.2l2.4-14.5c0,0,14.7,3.5,24.9-10.3c10.2-13.9,8.4-15.6,8.4-15.6s18.2-7.3,20.6-14.5
		c0,0,4,0.5,4.1,6.6c0,0,0.7,2.6,5.5,1.9l-9.7,9.5l1.7,2.4c0,0-7.1,16.4-16.8,24.9l-7.3,12.6c0,0-12.8,18.8-35.7,21.2
		C1951.3,404.4,1959.6,383.9,1953,380.2z"/>
	<path id="XMLID_141_" class="st5" d="M1895.3,275.2c0,0,63-28.5,38.5-101.5c0,0,73.9,59.5-16.4,142.3
		C1917.4,315.9,1921.6,279.7,1895.3,275.2z"/>
	<path id="XMLID_144_" class="st5" d="M1756.1,279.2c0,0-17.5,43-28.8,45.5s-122.5-62.3-36.5-148.3
		C1690.8,176.4,1658,274.6,1756.1,279.2z"/>
	<path id="XMLID_182_" class="st3" d="M2089.5,203.6c0,0,8,1.2,12.9-2.2c0,0,6.3,2,11.7,0c0,0,13.1,0.6,16.4,2.4
		c0,0-20,1.8-21.9,1.8C2106.7,205.6,2092.8,207.1,2089.5,203.6z"/>
	<path id="XMLID_183_" class="st3" d="M2123.8,209.7c0,0-12.7,3.1-22.5,2.9c0,0,0.6,4.1,4,4.7c3.4,0.6,20.5,0.6,15.8-3.8l-6.1,0.1
		C2114.9,213.6,2123,212.4,2123.8,209.7z"/>
	<path id="XMLID_195_" class="st6" d="M2136.7,106.3c0,0-19,22-63.2,14.5l-11,12.3c0,0,0.5,32.2-3.5,36.8l9.8,41.3
		c0,0-11.6-8.3-15.6-26.3s-7.7-60.5-0.7-72.2s30.7-38.5,51.5-35.2c20.8,3.3,33.4,4,42.3,13.3c8.9,9.3,17.2,28.8,17.2,33.3
		c0,4.5,4.5,16.8,4.5,16.8s0.8,46.2-11.5,61.8c0,0,4.7-30.1-0.7-41c-5.3-11-11.7-45.2-11.7-45.2S2142,108.1,2136.7,106.3z"/>
	<path id="XMLID_198_" class="st7" d="M2064.1,254.8c0,0,17,6.6,19,6.2l-3,2.5h-10.5l-1.5,6.8c0,0,47.2,11.2,62.3,7.7
		c0,0,2,6.6-42.3,6.2c0,0-14.5-0.6-26.3,8.3c0,0,18.4-23.2-10.9-1.5h-4c0,0,25.4-27.4-4.1-1.6l-13,0.6c0,0,22.3-16.5,27.9-15.5
		C2057.9,274.4,2062.1,257.9,2064.1,254.8z"/>
	<path id="XMLID_199_" class="st7" d="M2011.1,523.1c0,0,29.2,67.4,11.9-1.8c0,0,28.8,58.9,21.6,27.4c0,0,8.3,6.9,12.6,13.1
		c4.2,6.2,15.4,5.5,15.4,5.5s-14.2,1.2-21.6-1.8c-7.4-3-32.9-1.8-32.9-1.8S2008.6,535.7,2011.1,523.1z"/>
	<path id="XMLID_202_" class="st7" d="M2014.8,578.5c0,0-1.2,9,1.2,9.7c0,0,29.9-1.2,32.9-3l-6.2-1.9
		C2042.8,583.4,2035.2,573.8,2014.8,578.5z"/>
	<path id="XMLID_204_" class="st7" d="M2016.7,593.4l7.2,0.7c0,0-10.4,6.5-10.9,9.7C2013,603.8,2011.8,597.1,2016.7,593.4z"/>
	<path id="XMLID_205_" class="st7" d="M2039.6,593.4c0,0-11.2-0.5-12.9,0c0,0-13.1,14.3-9.4,28.5
		C2017.3,621.9,2032.7,596.4,2039.6,593.4z"/>
	<path id="XMLID_207_" class="st7" d="M2047.7,593.4c0,0,13.6,0.5,17.3-2.5c0,0-29.6,40.9-31.5,48.3
		C2033.6,639.2,2029.7,619.2,2047.7,593.4z"/>
	<path id="XMLID_209_" class="st7" d="M2182.1,613.2c0,0,11.2-2.2,13.3-5.7c0,0-1.6,14.2,11.5-2.4c0,0-0.4,23.4,21.8-5
		c0,0,1.4,18.1,21.1,0.7c0,0,1.8,7.4-1.9,14.2c-3.7,6.8-28.5,17.4-27.3,35.3c0,0-15.4,10.6-7.4-10.4
		C2221,618.9,2182.1,613.2,2182.1,613.2z"/>
	<path id="XMLID_211_" class="st7" d="M2133.7,639.2c0,0-11.2-43.4,3.7-17.3c0,0,7.4,15.4,9.9-9.9c2.5-25.3-12.6-26.7-5.7-9.4
		c0,0-11-10.4-12-16.6s-6.4-3.2-6.4-3.2s2.3-3.8,34.5-2.4c0,0,1.2-18.6,5-20.4c0,0-24.6,4.2-28.3,2.5c-3.7-1.8,12.2-3.7,12.2-3.7
		s6.9-15.2,14.3-15.4c0,0-0.7,21.1,7.4-16.6c0,0,1.2-10.4,11.2-9.9s10.6-43,10.6-43s-3-9.2,16.1-26.5c0,0,7.4-10.8,10.4-33.8
		s11.9-19.8,11.9-19.8s5,9.2-9.9,31.5c0,0-0.2,18.6-5.7,29.7c0,0,1.8,33.5-5,48.3l6.7,6.2l10.1,1.2l-15.6,8.7l-23.5,35.9
		c0,0-3.7,18.1-6.2,19.8v18.4c0,0-14.9,14.9-13.6,21.7L2133.7,639.2z"/>
	<path id="XMLID_185_" class="st6" d="M2118.3,151.5c0,0,0-3.3,12.3-4.7c0,0,5.3-0.4,7.4-2.9c0,0,7,0.8,9,6.3c0,0-8.6-4.1-19.8,1.4
		C2127.3,151.5,2121.8,152.9,2118.3,151.5z"/>
	<path id="XMLID_189_" class="st6" d="M2100.5,152.9c0,0-21.9-13.1-30.1-2.7C2070.3,150.2,2082.6,148.2,2100.5,152.9z"/>
	<path id="XMLID_191_" class="st1" d="M2095.1,161.9c0,0-2.8-7.7-11.4-6.3c-8.6,1.3-11.8,3.7-11.8,3.7S2076.9,167.3,2095.1,161.9z"
		/>
	<path id="XMLID_194_" class="st1" d="M2122.1,160.1c0,0,2.5-5.9,10.2-5.6c7.7,0.3,12.4,0.7,13.9,5.9
		C2146.3,160.4,2131.5,164,2122.1,160.1z"/>
	<circle id="XMLID_226_" class="st8" cx="2083" cy="159.6" r="4"/>
	<circle id="XMLID_233_" class="st8" cx="2133.2" cy="158.2" r="4"/>
	<rect id="XMLID_7_" x="358" y="469.8" class="st9" width="471.6" height="105"/>
	<rect id="XMLID_6_" x="612" y="670.4" class="st9" width="471.6" height="105"/>
	<rect id="XMLID_5_" x="104" y="670.4" class="st9" width="471.6" height="105"/>
	<text id="XMLID_1_" transform="matrix(1 0 0 1 450.234 539.1874)" class="st10 st11 st12">Capitalists</text>
	<text id="XMLID_3_" transform="matrix(1 0 0 1 116.8635 734.4507)" class="st10 st11 st13">Exploit the working class</text>
	<text id="XMLID_4_" transform="matrix(1 0 0 1 713.8118 734.4508)" class="st10 st11 st13">Exploit animals</text>
	<g id="XMLID_10_">
		<g>
			<path class="st14" d="M593.8,574.8v24.8c0,8.3-6.7,15-15,15h-224c-8.3,0-15,6.7-15,15l0,28.7"/>
			<g>
				<path class="st10" d="M339.8,670.4c-2.1-5.7-5.7-12.7-9.5-17.1l9.5,3.4l9.5-3.4C345.5,657.6,341.9,664.7,339.8,670.4z"/>
			</g>
		</g>
	</g>
	<g id="XMLID_11_">
		<g>
			<path class="st14" d="M593.8,574.8v24.8c0,8.3,6.7,15,15,15h224c8.3,0,15,6.7,15,15l0,28.7"/>
			<g>
				<path class="st10" d="M847.8,670.4c-2.1-5.7-5.7-12.7-9.5-17.1l9.5,3.4l9.5-3.4C853.5,657.6,849.9,664.7,847.8,670.4z"/>
			</g>
		</g>
	</g>
	<rect id="XMLID_15_" x="104" y="870.9" class="st9" width="979.6" height="503.4"/>
	<text id="XMLID_12_" transform="matrix(1 0 0 1 133.474 1101.7665)"><tspan x="0" y="0" class="st10 st11 st15">a report from Oxfam found that line workers at Tyson Foods,</tspan><tspan x="0" y="24" class="st10 st11 st15">Perdue Farms, Pilgrim&apos;s Pride, and Sanderson Farms were denied breaks.</tspan><tspan x="0" y="48" class="st10 st11 st15">In fact, they went so long without breaks that some employees were</tspan><tspan x="0" y="72" class="st10 st11 st15">forced to wear diapers.</tspan><tspan x="0" y="120" class="st10 st11 st15">To make matters worse, slaughterhouse violence not only subjects</tspan><tspan x="0" y="144" class="st10 st11 st15">countless workers to serious psychological trauma</tspan><tspan x="0" y="168" class="st10 st11 st15">but also makes its way into the communities they are part of.</tspan><tspan x="0" y="224.4" class="st10 st11 st16">Source: </tspan><tspan x="83" y="224.4" class="st10 st17 st16">https://mercyforanimals.org/slaughterhouse-workers-have-ptsd-from-killing</tspan></text>
	<text id="XMLID_16_" transform="matrix(1 0 0 1 176.0009 935.0297)"><tspan x="0" y="0" class="st10 st11 st13">The people who allow other people to develop</tspan><tspan x="39.8" y="36" class="st10 st11 st13">PTSD will have no remorse for the animals</tspan><tspan x="295.9" y="72" class="st10 st11 st13">they’re killing</tspan></text>
	<g id="XMLID_19_">
		<g>
			<path class="st14" d="M593.8,858.9v-12.7c0-8.3,6.7-15,15-15h224c8.3,0,15-6.7,15-15l0-40.8"/>
			<g>
				<path class="st10" d="M593.8,870.9c2.1-5.7,5.7-12.7,9.5-17.1l-9.5,3.4l-9.5-3.4C588.1,858.2,591.7,865.3,593.8,870.9z"/>
			</g>
		</g>
	</g>
	<g id="XMLID_17_">
		<g>
			<path class="st14" d="M593.8,858.9v-12.7c0-8.3-6.7-15-15-15h-224c-8.3,0-15-6.7-15-15l0-40.8"/>
			<g>
				<path class="st10" d="M593.8,870.9c2.1-5.7,5.7-12.7,9.5-17.1l-9.5,3.4l-9.5-3.4C588.1,858.2,591.7,865.3,593.8,870.9z"/>
			</g>
		</g>
	</g>
	<rect id="XMLID_18_" x="1234.8" y="670.4" class="st9" width="986" height="703.9"/>
	<g id="XMLID_23_">
		<g>
			<line class="st14" x1="1083.6" y1="1122.6" x2="1222.7" y2="1122.6"/>
			<g>
				<path class="st10" d="M1234.8,1122.6c-5.7,2.1-12.7,5.7-17.1,9.5l3.4-9.5l-3.4-9.5C1222.1,1116.9,1229.1,1120.5,1234.8,1122.6z"
					/>
			</g>
		</g>
	</g>
	<text id="XMLID_24_" transform="matrix(1 0 0 1 1366.6405 756.9884)"><tspan x="0" y="0" class="st10 st11 st13">Capitalism is the biggest obstacle in the</tspan><tspan x="72.2" y="36" class="st10 st11 st13">way of cruely-free consumption.</tspan><tspan x="117.3" y="84" class="st10 st11 st15">The Animal Liberation Movement and the</tspan><tspan x="141.1" y="108" class="st10 st11 st15">proletariat have one common enemy.</tspan><tspan x="90.6" y="156" class="st10 st11 st15">Even if you don’t agree that animal liberation</tspan><tspan x="90.6" y="180" class="st10 st11 st15">is an extension of th class struggle, you must</tspan><tspan x="105.4" y="204" class="st10 st11 st15">understand that solidarity and cooperation</tspan><tspan x="224.8" y="228" class="st10 st11 st15">is in our best interests.</tspan><tspan x="50.1" y="300" class="st10 st11 st13">Veganism without anticapitalism is</tspan><tspan x="205.1" y="336" class="st10 st11 st13">utterly worthless.</tspan></text>
	<g id="XMLID_32_">
		<polygon id="XMLID_31_" class="st18" points="1771.1,1176.2 1727.8,1279 1684.5,1176.2 1675.7,1168.7 1675,1180.2 1727.8,1305.5 
			1780.6,1180.2 1779.8,1168.7 		"/>
		<path id="XMLID_30_" class="st18" d="M1689.2,1265.1l9.8-23.4l-5.6-13.3l-11.6,27.6c-5.6-8.6-8.8-18.8-8.8-29.8
			c0-10.2,2.8-19.8,7.7-28l-4.8-11.3c-8.3,10.9-13.2,24.5-13.2,39.3c0,15.5,5.4,29.7,14.4,40.9l-2.2,5.2l0.7,11.5l8.8-7.5l0.5-1.1
			c9.5,8.4,21.5,14,34.8,15.6l-4.8-11.3C1705,1277.1,1696.2,1272,1689.2,1265.1z"/>
		<path id="XMLID_29_" class="st18" d="M1792.8,1226.2c0-14.8-4.9-28.4-13.2-39.3l-4.8,11.3c4.9,8.2,7.7,17.8,7.7,28
			c0,11-3.2,21.2-8.8,29.8l-11.6-27.6l-5.6,13.3l9.8,23.4c-7,6.9-15.8,12-25.7,14.4l-4.8,11.3c13.2-1.6,25.2-7.2,34.8-15.6l0.5,1.1
			l8.8,7.5l0.7-11.5l-2.2-5.2C1787.4,1255.9,1792.8,1241.7,1792.8,1226.2z"/>
		<path id="XMLID_26_" class="st18" d="M1717,1172.5l-16.1,38.2l8.7,20.6h36.4l8.7-20.6l-16.1-38.2c10.1,2,19.2,6.8,26.5,13.6
			l4.2-10c-9.8-8.1-22-13.4-35.3-14.6l-6.1-14.5l-6.1,14.5c-13.4,1.2-25.6,6.5-35.3,14.6l4.2,10
			C1697.8,1179.4,1706.9,1174.6,1717,1172.5z M1727.8,1173.5l20,47.6h-40.1L1727.8,1173.5z"/>
	</g>
	<path id="XMLID_176_" class="st2" d="M2195.3,657.1c0,0-16.8-18.8-33.8-14.2c0,0-10-6.2-19.8-2.2c0,0-14.7-10-28,7.5
		c-13.3,17.5-17.8,14.6-20.3,23.3l9.8,4.7l44.3,11l25-2.8l18.7-10.5L2195.3,657.1z"/>
	<path id="XMLID_174_" class="st3" d="M2132.3,653.6c0,0-18,22.7-39,18c0,0-13.3,40.7,0,40.2c13.3-0.5,20.3-30.2,20.3-30.2
		s-8.7,41,5.8,40.8c0,0,5.5-0.2,8.8-4.2c0,0,4.8,6.3,11.7,3.5s8.7-9.8,8.7-9.8s11.7,1.8,15.2-7c3.5-8.8,15.2-21.7,15.2-21.7
		s30.3-10.3,16.3-26.2c0,0-11,26.7-28.5,22.7c0,0-8.8,0-0.7-14c0,0-9.5,15.8-19.3,11.7c-9.8-4.2,5.8-17.5,5.8-17.5s-22.2,22-28.5,18
		C2117.8,673.9,2114.8,672.3,2132.3,653.6z"/>
	<circle id="XMLID_107_" class="st1" cx="2081.3" cy="157.6" r="1.2"/>
	<circle id="XMLID_236_" class="st1" cx="2131.8" cy="156.2" r="1.2"/>
	<polygon id="XMLID_241_" points="2316.9,0.2 2195.5,1419.6 2458.6,1419.4 2458.6,0 	"/>
	<g id="XMLID_36_">
		<g id="XMLID_47_">
			<g>
				<path id="XMLID_433_" class="st19" d="M2397.4,257.3c-2.6-2.2-5.2-4.3-7.9-6.4c-0.6-0.5-0.9-0.7-1.6-1.2c-0.7-0.5-1.3-0.8-1.7-1
					l-0.1,0c-0.1,0-0.2,0.1-0.2,0.1c0.5,2.4,3.6,5.4,5.3,8.1c1.4,2.5,2.7,4.9,3.8,7.5C2396.1,262.1,2396.9,259.7,2397.4,257.3
					 M2397.8,255.3c0.1-0.5,0.1-0.8,0.2-1.3c0.2-0.6,0.4-0.9,0.8-0.9c0.2,0,0.3,0.2,0.3,0.7c-0.1,0.4-0.1,0.5-0.2,0.9
					c-0.1,0.5-0.1,0.8-0.2,1.3c1.4,1.1,2.1,1.7,3.4,2.8c2.1,1.9,3.1,2.9,3,3.1c-0.1,0.2-0.3,0.3-0.6,0.5c-0.3,0.1-0.6,0.3-0.8,0.2
					c-1.6-0.5-3.6-3.1-5.4-4.6c-0.1,0.4-0.2,0.6-0.3,1.1c-0.6,2.3-1.4,4.4-2.3,6.6c0.9,1.8,1.3,2.8,1.8,4.6c0.3,0.7,0.4,1.1,0.6,1.8
					c0.3,1,0.3,1.6,0.1,1.8c-0.2,0.3-0.5,0.4-0.8,0.4c-0.4,0-0.7-1.3-1.4-3.9c-0.4-1.3-0.6-1.9-1.1-3.1c-1.1,2.2-2.6,4.2-3.6,6.5h0
					c0.2,0,0.8-0.7,1.8-2c0.5-0.7,0.7-1.1,1.2-1.8c0.1-0.2,0.3-0.4,0.4-0.4c0.3,0-0.1,1-1.6,3c-1.3,1.7-2.2,2.5-2.7,2.5
					c-0.6,0-0.6-0.5-0.1-1.5c0.1-0.3,0.6-1,1.3-2.1c1.3-2.1,1.9-3.2,2.8-5.3c-1.4-3.2-2.9-6.3-4.5-9.2c-1.6-2.8-4.8-6.2-5.2-9.1
					c-0.1-0.4,0.4-0.7,1.1-0.7c0.6,0,1.9,0.6,3.7,1.9C2392.2,251,2395.1,253.1,2397.8,255.3"/>
				<path id="XMLID_429_" class="st19" d="M2387.2,231.7c-0.1,0.1,3.6,3.5,5.6,4.8c2.3,1.4,3.8,2.1,4.7,2.1c0.3,0,0.5-0.1,0.4-0.4
					c-0.1-0.6-1.3-1.7-3.5-3.2C2392.2,233.6,2387.2,231.7,2387.2,231.7 M2404.9,250.2c-0.3,0.1-1,2.6-1.3,3.9
					c-0.3,2,0.1,2.9,1.4,2.9c1.1,0,1.9-0.7,2.1-2.2C2407.4,253.5,2405.1,250.2,2404.9,250.2 M2404.4,247.7c1.4-3.2,1.8-5.3,1.6-6.5
					c0-0.1-0.1-0.3-0.2-0.5c-0.1-0.2-0.1-0.4-0.2-0.5c0-0.1,0-0.1,0.1-0.1c0.3,0,0.7,0.3,1,0.8c0.3,0.5,0.4,0.9,0.5,1.2
					c0.1,1.2-2,5.2-1.8,6.6c0.2,1.1,2.8,3.9,2.5,5.9c-0.1,0.8-0.4,1.5-0.9,2c-0.6,0.7-1.3,1.1-2.2,1.1c-1,0-1.8-0.6-2.2-1.7
					c-0.4-0.9-0.5-1.9-0.4-2.9c0.2-1.2,0.6-2.5,1.3-4c-2.9-2.4-5.9-4.8-9-7.1c-1.9-1.4-3.8-2.8-5.7-4.3c-2.6-2.1-4.1-3.9-4.4-5.2
					c-0.3-1.1,1.1-1.9,1.1-1.9c0-0.1-0.5-0.8-0.6-0.9c0-0.1,0-0.2,0.2-0.2c0.1,0,0.3,0.1,0.6,0.4l0.4,0.6c2.7,0.2,5.4,1.6,7.6,3
					c3,1.9,4.7,3.4,4.9,4.4c0.1,0.8-0.2,1.1-1,1.1c-1.1,0-2.8-0.7-5.1-2.1c-2.5-1.5-4.7-4.7-6.4-5.5c-0.1-0.1-0.3,0-0.4,0
					c-0.6,0-0.8,0.2-0.7,0.7c0.2,0.9,1.7,2.3,4.3,4.3c1,0.7,2.7,2,5.2,3.8c2,1.5,4,2.9,6,4.5C2402.3,245.9,2403,246.5,2404.4,247.7"
					/>
				<path id="XMLID_428_" class="st19" d="M2381.1,219.1c0.1,0,0.4-0.1,0.5-0.1c0.2,0,1,0.5,2.5,1.4c1.1,0.7,1.6,1,2.7,1.7
					c4.4,2.7,8.8,5.4,13.3,8c2,1.2,3.6,2.1,4.7,2.6c0.8,0.4,1.3,0.8,1.3,1.1c0.1,0.5-0.2,0.8-0.6,0.7c-6.2-0.9-14.1-8.1-20.2-11.9
					c-0.9-0.6-3.4-2.3-3.4-2.3c0,0,3.2,4.3,5,6.3c0.2,0.2,0.3,0.4,0.4,0.5c0.1,0.3-0.1,0.5-0.7,0.5c-0.6,0-1.6-1-3.2-3.1
					c-1.1-1.4-2.1-2.8-2.8-4c-1-1.5-1.7-2.9-2.3-4.3c-0.6-1.5-0.8-2.6-0.4-3.4c0.4-0.8,1.5-1.2,3.2-1.2c1.6,0,3.5,0.9,5.9,2.8
					c2.8,2.2,5.6,8.3,6.3,8.6c0.1,0.1,1.8-0.6,3.8-1c1.8-0.4,2.8-0.7,3-0.9c0.2-0.2,0.2-0.5-0.1-1.1c0-0.1,0-0.2,0-0.2
					c0.1,0,0.5,0.2,0.9,0.7c0.3,0.4,0.5,0.7,0.6,0.9c0.1,0.3,0.1,0.6,0,1c-0.1,0.3-0.6,0.5-1.3,0.7l-2.8,0.6c-1.1,0.2-2,0.5-2.7,0.7
					c-0.3,0.1-0.7,0.3-1,0.5c-0.3,0.3-0.5,0.5-0.5,0.5c-0.3,0-0.5-0.4-0.8-1.2c-0.1-0.3,0.1-0.6,0.1-0.7c0.1-0.6-1.6-3-3.3-5
					c-1.7-2-3.3-3.4-4.8-4.4c-1.8-1.1-3.1-1.7-4.1-1.7c-1.5,0-1.8,1.1-0.9,3.4C2379.8,216.7,2380.6,218.9,2381.1,219.1"/>
				<path id="XMLID_425_" class="st19" d="M2369.6,191.4c0,0-0.1-0.7-0.2-0.9c-0.1-0.5-0.4-1.1-0.7-1.7c-0.4-0.8-0.8-1.2-1.2-1.2
					c-0.2,0-0.2,0.2-0.1,0.5C2367.7,189.3,2369.6,191.4,2369.6,191.4 M2382.3,199.2c0,0-0.5-1.2-0.6-1.6c-0.2-0.5-0.1-0.8,0.2-0.8
					c0.2,0,0.7,1.9,1.7,2.9c1.5,1.6,5.8,3,8.5,4.7c2.4,1.5,5.6,3.3,6.9,6c0.2,0.5,0.3,1,0.1,1.4c-0.2,0.4-0.6,0.6-1.2,0.6
					c-1.2,0-2.6-0.5-4.4-1.4c-1.8-0.9-2.7-1.5-2.9-1.9c-0.1-0.1,0-0.2,0.1-0.2c0,0,0.5,0.2,1.4,0.7c1,0.6,1.9,1,2.7,1.3
					c1.2,0.5,2.1,0.7,2.8,0.7c0.8,0,1.1-0.4,0.8-1.1c-0.2-0.5-0.9-1.2-2.1-2.1c-1.3-0.9-3.3-2.1-5.9-3.5c-2.4-1.3-3.6-1.9-6-3.2
					c0.5,1.2,1.3,2.6,2.2,4.3c1,1.7,1.5,2.6,1.5,2.8c0.1,0.3,0.1,0.5-0.2,0.5c-0.2,0-0.4-0.1-0.6-0.3c-0.2-0.2-1-1.4-2.1-3.7
					c-0.8-1.7-1.3-2.5-2.1-4.2c-4-2.2-11.6-7.2-11.6-7.2c-0.1,0,0.5,2.6,1,3.8c0.7,2,1.8,3.9,3.1,5.7c1.4,1.9,3.1,3.7,5.1,5.1l1.9,1
					c0.9,0.5,1.4,0.8,1.5,1c0.1,0.3,0,0.5-0.3,0.5c-0.5,0-2.3-0.9-5.5-2.6c-3.2-1.7-4.8-2.7-5-3c-0.1-0.3,0-0.5,0.3-0.5
					c0.2,0,0.5,0.2,1,0.5c1.6,1,4.4,2.3,4.4,2.3c0,0-6.4-6.2-8-10.4c-0.5-1.3-0.6-3.7-1.2-4.8c-0.7-1.3-2.5-2.9-2.9-4.3
					c-0.2-0.8-0.1-1.2,0.4-1.2c0.8,0,1.6,0.8,2.4,2.3c0.6,1.1,0.9,2.6,1.4,3.2C2372.9,195,2382.3,199.2,2382.3,199.2"/>
				<path id="XMLID_421_" class="st19" d="M2381.9,189.9c-0.4,0-0.5,0.1-0.4,0.4c0.2,0.6,1.4,1.7,3.8,3.4c2.4,1.7,3.9,2.5,4.7,2.5
					c0.3,0,0.4-0.1,0.3-0.3c-0.2-0.5-1.5-1.6-3.8-3.4C2384.1,190.8,2382.6,189.9,2381.9,189.9 M2391.5,195c-0.1,0.1,3.5,4.2,5.7,5.9
					c2.4,1.9,4.3,2.8,5.3,2.8c0.4,0,0.6-0.2,0.5-0.5c-0.3-0.8-2.1-2.2-5.2-4.3C2395.7,197.6,2391.5,195,2391.5,195 M2388.1,197
					c0,0,2.6,2.1,3,2.5c1.4,1.2,2.2,2.1,2.5,2.8c0,0.1,0,0.2-0.1,0.2c-0.2,0-0.4-0.1-0.5-0.3c-0.6-1-1.9-2.2-3.7-3.6
					c-2-1.5-2.9-2.3-4.8-3.8c-2.2-1.8-3.3-3.2-3.6-4.2c-0.2-0.8,1.2-1.1,1.2-1.1c0,0-1-0.7-1.1-0.9c-0.1-0.3,0.1-0.5,0.4-0.4
					c2.4,0.5,8.3,4.6,8.3,4.6c0,0-0.1-0.2-0.1-0.3c-0.1-0.1-0.1-0.2-0.1-0.3c0-0.1,0-0.2,0.2-0.2c0.2,0,0.3,0.2,0.5,0.5l0.3,0.7
					c4.2,2.5,10.9,5.4,13,9.8c0.4,0.8,0.1,1.3-0.7,1.3c-1.3,0-3.2-0.8-5.6-2.6c-2.6-1.9-4.8-5.4-6.5-7.1c-0.8-0.8-3.3-1.9-3.3-1.9
					c0,0,2,1.5,2.3,1.8c1,0.8,1.5,1.5,1.7,2.1c0.2,0.7-0.1,1-1,1C2389.6,197.5,2388.1,197,2388.1,197"/>
				<path id="XMLID_418_" class="st19" d="M2379.4,180.3c0.1,0.5,1.1,1.6,3.3,3.3c2.2,1.7,3.6,2.5,4.2,2.5c0.3,0,0.4-0.1,0.3-0.4
					c-0.1-0.5-1.3-1.6-3.4-3.3c-2.1-1.7-3.4-2.6-4-2.6C2379.5,179.9,2379.4,180,2379.4,180.3 M2385.3,187.1c0,0,3.9,3.1,4.7,5
					c0,0.1,0,0.2-0.2,0.2c-0.2,0-0.3-0.1-0.5-0.3c-0.4-0.8-1.5-2-3.3-3.5c-0.8-0.7-1.2-1.1-2-1.8c-1.3-1.1-1.9-1.7-3.2-2.8
					c-1.3-1.3-1.9-2.4-2.1-3.3c-0.1-0.7,1-1.1,1-1.1c0,0-0.6-0.6-0.7-0.7c0-0.3,0.1-0.4,0.4-0.4c0.4,0,1.5,0.7,3.6,2.1
					c2,1.4,3.3,2.1,3.6,2.1c0.2,0,0.3-0.2,0.3-0.5c0-0.3,0-0.4,0.2-0.4c0.2,0,0.4,0.3,0.5,0.9c0.1,0.6-0.1,0.9-0.8,0.9
					c-0.5,0-1.2-0.2-2.2-0.7c0.8,0.7,1.2,1,2,1.7c0.9,0.8,1.4,1.5,1.5,2c0.2,0.8-0.2,1.2-1.1,1.2
					C2386.5,187.4,2385.3,187.1,2385.3,187.1"/>
				<path id="XMLID_417_" class="st19" d="M2379.9,172.7c1.6,1.7,2.4,2.6,4.2,4.4c2,2.2,3.2,3.7,3.4,4.6c0,0.1,0,0.2-0.2,0.2
					c-0.2,0-0.3-0.1-0.4-0.3c-0.3-0.7-0.6-1.2-0.8-1.5c-0.4-0.6-1.6-1.8-3.3-3.6c-0.8-0.8-2-2.1-3.6-3.6c-0.6-0.6-1-1-1-1.3
					c0-0.5,0.2-0.8,0.6-0.8c0.5,0,2.9,1.5,2.9,1.5c0,0-2.9-3.4-2.8-4.1c0-0.3,0.2-0.5,0.4-0.7c0.2-0.2,0.5-0.3,0.7-0.3
					c0.4,0,1.7,0.7,1.7,0.7c0,0-2.5-3.3-2.2-4.3c0.2-0.6,0.5-0.9,1.1-0.9c0.7,0,1.7,0.7,3.1,2.2c1.4,1.5,2.4,2.2,2.7,2.2
					c0.3,0,0.4-0.2,0.5-0.5c0.1-0.3,0.2-0.5,0.3-0.5c0.2,0,0.3,0.3,0.2,0.8c-0.1,0.7-0.5,1.1-1.2,1.1c-0.8,0-2-0.7-3.4-2
					c-1.4-1.3-2.2-2-2.4-2c-0.1,0-0.2,0.1-0.2,0.2c-0.1,0.5,0.6,1.7,2.2,3.6c1.4,1.5,2.6,2.6,3.6,3.4c0.6,0.4,0.9,0.8,0.9,1
					c0,0.4-0.2,0.5-0.6,0.5c-0.4,0-1.5-0.7-3.2-2.1c-1.7-1.4-2.7-2.1-3.1-2.1c-0.2,0-0.3,0.1-0.3,0.3c-0.1,0.5,0.7,1.6,2.4,3.2
					c1.5,1.4,2.7,2.5,3.6,3.1c0.7,0.5,1.1,0.9,1.1,1.2c0,0.3-0.1,0.5-0.4,0.5c-0.4,0-1.5-0.6-3.4-1.9
					C2381.7,174,2381.1,173.6,2379.9,172.7"/>
				<path id="XMLID_414_" class="st19" d="M2386.1,159.6c0.1-0.1-0.4-1.7-0.8-2.7c-0.5-1.2-0.9-1.9-1.6-1.9c-0.2,0-0.4,0.1-0.5,0.3
					c-0.3,0.6-0.1,1.4,0.7,2.4C2384.7,158.7,2386.1,159.6,2386.1,159.6 M2386.4,161.4c-0.1,0.1,0.2,1.3,0.7,2.6
					c0.4,1.1,0.6,1.9,0.5,2.5c0,0.1-0.1,0.2-0.2,0.2c-0.2,0-0.3-0.1-0.3-0.4c0-0.6-0.2-1.3-0.6-2.3c-0.4-1.1-0.4-2.5-0.5-2.7
					c-0.2-0.4-1.9-1.3-2.6-2.6c-0.8-1.4-0.9-2.6-0.3-3.6c0.4-0.7,1-1.1,1.7-1.1c0.9,0,1.5,0.8,1.8,2.3c0.2,1.1,0.1,3,0.4,3.5
					c0.1,0.1,0.6,0.2,1,0.2c0.5,0,1-0.2,1.2-0.5c0.1-0.2,0.3-0.5,0.5-0.9c0.2-0.3,0.3-0.5,0.5-0.5c0.3,0,0.1,0.6-0.3,1.7
					c-0.5,1.2-1.2,1.8-2.4,1.8C2386.9,161.5,2386.4,161.3,2386.4,161.4"/>
				<path id="XMLID_413_" class="st19" d="M2387.6,150.5c-0.1-0.1-0.6,0.1-0.7,0.1c-0.3,0-0.5-0.3-0.7-0.9c-0.2-0.6-0.2-1,0-1.2
					c0.2-0.2,0.4-0.3,0.6-0.3c0.2,0,0.6,0.3,0.7,0.3c0.4,0,1.7-1.5,2.6-1.5c0.7,0,1.3,0.7,1.9,2c0.6,1.3,1.1,2,1.3,2
					c0.2,0,0.3-0.1,0.5-0.3l0.3-0.4c0.1-0.1,0.2-0.2,0.4-0.2c0.2,0,0.1,0.3-0.2,0.8c-0.5,0.7-1,1-1.7,1c-0.7,0-1.3-0.3-1.9-1
					c-0.3-0.4-0.7-1-1-1.9c-0.2-0.7-0.4-1-0.5-1c-0.2,0-0.3,0.1-0.4,0.2c-0.1,0.1-0.2,0.4-0.4,0.8c-0.2,0.4-0.2,0.6-0.2,0.7
					c0.8,2.5,2.7,6.1,1.9,8.6c0,0.1-0.1,0.2-0.3,0.2c-0.2,0-0.2-0.1-0.2-0.4c0.1-0.3,0.1-0.7,0.1-1.2c0-0.7-0.4-1.8-0.9-3.3
					C2388.3,152.2,2387.9,150.7,2387.6,150.5"/>
				<path id="XMLID_412_" class="st10" d="M2420.2,247.2c0,9.9-3.4,19.1-10.4,28.1c-0.2,0.2-0.6,0.3-0.8,0.1
					c-0.2-0.2-0.3-0.6-0.1-0.8c8.1-10.5,11.3-21.3,9.7-33.2c-1.3-9.7-5.2-19-8.9-28l-0.3-0.8c-4.7-11.2-8.6-21.3-9.9-31.6
					c-1.5-11.8,0.9-22.1,7.3-31.6c0.2-0.3,0.5-0.3,0.8-0.2c0.3,0.2,0.3,0.5,0.2,0.8c-14.3,21.1-5.2,42.9,2.7,62.1l0.3,0.8
					c3.8,9.1,7.7,18.4,9,28.3C2420.1,243.2,2420.2,245.2,2420.2,247.2"/>
			</g>
		</g>
		<polygon id="XMLID_46_" class="st20" points="2399.6,167.2 2413.8,157.9 2393.4,152 		"/>
		<polygon id="XMLID_45_" class="st20" points="2404.3,190.5 2397.3,175 2383.9,184.5 		"/>
		<path id="XMLID_43_" class="st10" d="M2427.5,179.6c0.2-0.6,0.3-1.3,0.4-1.9c1.5-8.5-3.6-16.9-12.1-19.4c-0.7-0.2-1.4-0.3-2.1-0.5
			c0.9,3.7,3,10,7.8,13.4c7.1,5,1.2,7,1.2,7s3.9,4.8-4.7,5.2c-5.9,0.3-11.1,4.4-13.8,7c0.6,0.3,1.3,0.5,2,0.7
			c8.5,2.5,17.3-1.9,20.6-9.8C2427.1,180.8,2427.3,180.2,2427.5,179.6L2427.5,179.6z"/>
		<path id="XMLID_42_" class="st21" d="M2418.1,183.5c8.6-0.4,4.7-5.2,4.7-5.2s5.9-2-1.2-7c-4.8-3.4-6.9-9.7-7.8-13.4
			c-8.4-1.4-16.7,3.7-19.2,12.1c-2.4,8.4,1.8,17.1,9.7,20.5C2407,187.9,2412.2,183.7,2418.1,183.5"/>
		<path id="XMLID_41_" class="st22" d="M2423,175.2c0.8,0.2,1.1,1.7,0.6,3.2c-0.5,1.5-1.5,2.6-2.3,2.4c-0.8-0.2-1.1-1.7-0.6-3.2
			C2421.2,176.1,2422.2,175,2423,175.2"/>
		<path id="XMLID_40_" class="st22" d="M2415.2,163.8c2.3,0.7,3.7,2.9,3.1,4.9c-0.6,2-2.9,3.1-5.3,2.4c-2.3-0.7-3.7-2.9-3.1-4.9
			C2410.5,164.2,2412.9,163.2,2415.2,163.8"/>
		<path id="XMLID_39_" class="st22" d="M2410.8,179c2.3,0.7,3.7,2.9,3.1,4.9c-0.6,2-2.9,3.1-5.3,2.4c-2.3-0.7-3.7-2.9-3.1-4.9
			C2406.1,179.4,2408.5,178.3,2410.8,179"/>
		<path id="XMLID_38_" class="st10" d="M2408.4,181.1c0.9,0.3,1.4,1.2,1.2,2.1c-0.3,0.9-1.2,1.4-2.1,1.2c-0.9-0.3-1.4-1.2-1.2-2.1
			C2406.5,181.3,2407.5,180.8,2408.4,181.1"/>
		<path id="XMLID_37_" class="st10" d="M2412.8,165.9c0.9,0.3,1.4,1.2,1.2,2.1c-0.3,0.9-1.2,1.4-2.1,1.2c-0.9-0.3-1.4-1.2-1.2-2.1
			C2410.9,166.2,2411.9,165.7,2412.8,165.9"/>
	</g>
	<text id="XMLID_242_" transform="matrix(6.123234e-17 -1 1 6.123234e-17 2377.635 1248.6781)"><tspan x="0" y="0" class="st10 st11 st15">This infographic is made by An Autistic, Lesbian, Rational, Feminit Gamer</tspan><tspan x="0" y="24" class="st10 st11 st15">Credit for the cow and milkmaid goes to an unknown Soviet artist who made</tspan><tspan x="0" y="48" class="st10 st11 st15">this in 1950.</tspan></text>
	<text id="XMLID_244_" transform="matrix(1 0 0 1 44 274.9506)" class="st10 st11 st23">Why left unity matters to veganism</text>
</g>
</svg>
